<?xml version="1.0" encoding="UTF-8" standalone="no"?>
<!-- Created with Inkscape (http://www.inkscape.org/) -->

<svg
   xmlns:dc="http://purl.org/dc/elements/1.1/"
   xmlns:cc="http://creativecommons.org/ns#"
   xmlns:rdf="http://www.w3.org/1999/02/22-rdf-syntax-ns#"
   xmlns:svg="http://www.w3.org/2000/svg"
   xmlns="http://www.w3.org/2000/svg"
   xmlns:sodipodi="http://sodipodi.sourceforge.net/DTD/sodipodi-0.dtd"
   xmlns:inkscape="http://www.inkscape.org/namespaces/inkscape"
   viewBox="-83 -13 2403 1000"
   id="svg2"
   version="1.1"
   inkscape:version="0.91 r13725"
   sodipodi:docname="plate_vector_map.svg"
   inkscape:export-filename="C:\xampp\htdocs\mrt\MRTL2\ceodbl2\assets\svg\plate_vector_map.png"
   inkscape:export-xdpi="90"
   inkscape:export-ydpi="90">
  <defs
     id="defs4" />
  <sodipodi:namedview
     id="base"
     pagecolor="#ffffff"
     bordercolor="#666666"
     borderopacity="1.0"
     inkscape:pageopacity="0.0"
     inkscape:pageshadow="2"
     inkscape:zoom="3.959798"
     inkscape:cx="2032.402"
     inkscape:cy="77.325537"
     inkscape:document-units="px"
     inkscape:current-layer="layer3"
     showgrid="false"
     units="px"
     inkscape:window-width="1920"
     inkscape:window-height="1017"
     inkscape:window-x="-8"
     inkscape:window-y="-8"
     inkscape:window-maximized="1"
     showguides="false" />
  <metadata
     id="metadata7">
    <rdf:RDF>
      <cc:Work
         rdf:about="">
        <dc:format>image/svg+xml</dc:format>
        <dc:type
           rdf:resource="http://purl.org/dc/dcmitype/StillImage" />
        <dc:title />
      </cc:Work>
    </rdf:RDF>
  </metadata>
  <g
     style="display:inline"
     inkscape:label="line"
     id="g4335"
     inkscape:groupmode="layer"
     sodipodi:insensitive="true">
    <path
       inkscape:connector-curvature="0"
       id="v_track_201"
       d="m 33.452231,838.94857 c -0.83974,-1.01183 -0.11134,-2.2597 3.12756,-5.35803 8.05699,-7.70733 25.67119,-20.23384 30.0087,-21.34099 2.31745,-0.59153 5.46281,-1.56392 6.98969,-2.16088 3.21365,-1.25642 10.42346,-8.96949 14.44518,-15.4535 1.52827,-2.46394 5.1288,-8.12626 8.00119,-12.58294 5.799189,-8.99779 7.574899,-13.71966 9.320559,-24.78463 1.56026,-9.88979 2.2416,-11.35003 12.13142,-26 11.95838,-17.71418 17.24588,-29.00393 19.63553,-41.92539 1.70538,-9.22141 1.77405,-11.06918 0.59463,-16 -1.93176,-8.07616 -1.72826,-17.7655 0.475,-22.61595 1.2161,-2.67724 5.04872,-6.80536 11.35465,-12.23009 5.2354,-4.5038 10.22872,-9.68454 11.09626,-11.51275 1.14048,-2.40338 1.65369,-7.0768 1.85299,-16.87378 0.31477,-15.47352 0.46901,-15.0653 -10.63946,-28.15935 l -5.66934,-6.68269 4.31263,0.0328 c 4.08181,0.031 4.57502,0.36549 9.21562,6.25 8.3235,10.55463 9.09048,13.04633 8.99348,29.21725 -0.10539,17.56918 -0.74066,18.9671 -14.3331,31.54009 -12.55773,11.61588 -12.76179,12.14636 -11.12038,28.90837 1.12441,11.48247 1.06205,13.3607 -0.73218,22.05154 -1.0787,5.225 -2.70759,11.27877 -3.61976,13.45282 -2.14207,5.10536 -15.0196,26.64533 -19.21802,32.14556 -4.96247,6.50119 -6.31227,9.70046 -8.52668,20.20973 -2.64543,12.55478 -7.28515,24.54882 -10.94445,28.29223 -1.596059,1.63269 -2.901919,3.39588 -2.901919,3.91815 0,1.48277 -12.56603,17.39324 -16.38624,20.74744 -1.88472,1.6548 -6.50633,4.02105 -10.27025,5.25834 -3.76393,1.23728 -7.79919,2.97547 -8.96726,3.86264 -1.16806,0.88717 -7.12767,5.55054 -13.24357,10.36304 -6.1159,4.8125 -11.74261,8.75 -12.5038,8.75 -0.76119,0 -1.8766,-0.59356 -2.47868,-1.31903 z"
       style="display:inline;fill:#000000"
       sodipodi:nodetypes="sssssssssssssssccsssssssscsssssss" />
    <path
       inkscape:connector-curvature="0"
       id="v_track_202"
       d="m 130.8664,557.80886 c -8.7548,-9.78465 -15.43426,-16.22988 -20.45438,-19.73708 -8.28167,-5.78582 -10.22381,-8.45517 -12.494452,-17.17273 -2.85655,-10.96706 -1.50645,-26.82664 4.131722,-48.53512 1.35706,-5.225 2.64897,-11.67148 2.87093,-14.32552 1.05804,-12.65137 15.54517,-29.8552 43.64602,-51.83076 7.177,-5.61259 13.90057,-11.58598 14.94127,-13.27421 2.54545,-4.12926 5.69633,-14.46604 6.30604,-20.68762 0.74294,-7.58114 4.8349,-14.82054 13.78289,-24.38437 l 8.03956,-8.59287 2.38949,2.2448 2.38948,2.24481 -7.48695,7.05287 c -8.37629,7.89064 -12.00307,14.39456 -13.61774,24.42072 -0.53034,3.29308 -1.90203,9.05748 -3.0482,12.80978 -2.51076,8.21961 -5.99497,11.89083 -28.09764,29.60573 -14.35549,11.50568 -23.30602,20.78458 -28.52405,29.57053 -3.02036,5.08559 -5.30738,13.17873 -8.23631,29.14611 -1.16021,6.325 -3.0435,15.6396 -4.18509,20.69912 -1.8313,8.11628 -1.93671,9.99965 -0.89547,16 1.33996,7.72187 4.23166,14.93746 6.80114,16.97077 0.95796,0.75807 3.83485,2.47754 6.39309,3.82106 2.55824,1.34352 5.63266,3.69518 6.83205,5.22591 1.19939,1.53072 7.43128,8.63985 13.84865,15.79805 6.41737,7.1582 12.52519,14.0207 13.57294,15.25 l 1.90499,2.23509 -3.90499,-0.0129 c -3.75943,-0.0124 -4.38956,-0.55449 -16.90499,-14.54215 z"
       style="display:inline;fill:#000000"
       sodipodi:nodetypes="csssssssscccssssssssssssscscc" />
    <path
       inkscape:connector-curvature="0"
       id="v_track_203"
       d="m 196.85485,336.36416 c -1.74936,-1.93303 -1.7175,-2.20589 1.00581,-8.61359 3.25591,-7.66086 8.49508,-14.99003 14.21588,-19.88681 6.35292,-5.43787 7.27409,-8.36749 7.28051,-23.15447 0.007,-16.37186 0.85445,-19.36864 7.19558,-25.44847 8.58658,-8.23273 11.13532,-8.67729 36.29884,-6.33134 4.22307,0.3937 10.08928,-0.19957 19.80791,-2.00325 22.20392,-4.12083 26.07234,-4.2589 35.29777,-1.25988 15.6108,5.0748 22.76241,5.54356 39.6759,2.60061 7.307,-1.27142 14.93019,0.4765 26.21842,6.01164 4.4,2.15752 8.7875,4.16943 9.75,4.47091 1.16441,0.36472 1.75,1.56888 1.75,3.59858 0,2.81492 -0.21232,3.00144 -2.75,2.41585 -1.5125,-0.34902 -6.09045,-2.406 -10.17322,-4.57107 -11.01238,-5.83979 -17.31115,-7.04976 -27.42934,-5.26905 -13.6945,2.41009 -21.07261,1.87029 -36.14744,-2.64467 -11.13873,-3.33608 -12.2716,-3.31852 -34.97286,0.54224 -20.94968,3.56287 -21.72511,3.62339 -26.95261,2.10372 -6.71067,-1.95085 -15.27575,-2.01084 -19.70241,-0.13801 -1.85466,0.78467 -5.25081,3.37217 -7.54699,5.75 l -4.17487,4.32332 -0.33504,15.5 c -0.39993,18.50193 -0.72506,19.37879 -11.32541,30.54385 -5.99511,6.31449 -8.0022,9.28497 -10.55842,15.62636 -1.73591,4.30639 -3.48587,7.82979 -3.8888,7.82979 -0.40294,0 -1.54558,-0.89832 -2.53921,-1.99626 z"
       style="display:inline;fill:#000000;stroke-width:1;stroke-miterlimit:4;stroke-dasharray:none"
       sodipodi:nodetypes="sssssssssssssssssssscsssss" />
    <path
       inkscape:connector-curvature="0"
       id="v_track_ug"
       d="m 919.73327,354.01002 c -9.1423,-7.07446 -12.1506,-9.95438 -18.1802,-17.40423 -3.4647,-4.28079 -8.1995,-10.70826 -10.5219,-14.28326 -6.7633,-10.41116 -32.75187,-47.26269 -35.26124,-50 -1.2605,-1.375 -3.99216,-6.08671 -6.07035,-10.47047 l -3.77853,-7.97048 -0.61086,-20.52952 c -0.7015,-23.57595 -0.57536,-23.15646 -10.98422,-36.52953 -6.41594,-8.24305 -14.63013,-20.4418 -19.3325,-28.71034 -1.95372,-3.43538 -6.53076,-7.79954 -16.90988,-16.12335 -16.56374,-13.28374 -17.90559,-14.63579 -23.23109,-23.4077 -2.2,-3.62374 -5.26941,-7.52687 -6.82091,-8.67361 -3.00402,-2.22035 -6.86848,-2.44661 -27.17909,-1.59136 -8.24308,0.34711 -10.30359,0.008 -24.5,-4.03121 -14.55056,-4.14004 -16.2963,-4.41634 -28.5,-4.5108 -11.7385,-0.0909 -13.87335,-0.39842 -22,-3.16942 -19.72148,-6.724556 -29.66409,-10.445976 -32.757,-12.260616 -1.78365,-1.04648 -7.293,-3.09574 -12.243,-4.55389 -8.40298,-2.47533 -9.87127,-2.61065 -22.13443,-2.03987 -15.60303,0.72623 -21.4924,2.27694 -27.19923,7.16178 -4.91411,4.2063 -8.00693,9.864646 -11.15619,20.410386 -3.1369,10.50432 -4.40789,13.24447 -8.08686,17.43459 -4.63889,5.2834 -7.89351,6.60976 -21.23083,8.65227 -6.54143,1.00177 -13.53577,2.67019 -15.54298,3.7076 -3.81502,1.97177 -7.70818,6.84038 -11.06709,13.83999 -1.09121,2.27395 -5.1549,8.06596 -9.03043,12.87112 -8.56758,10.62271 -10.05196,14.9113 -10.05196,29.04157 0,9.70234 -0.1711,10.52616 -3.61666,17.41342 -4.6561,9.307 -11.63652,16.20851 -22.79712,22.53944 -4.84789,2.75 -11.74761,6.9125 -15.3327,9.25 -3.5851,2.3375 -6.94912,4.25 -7.47561,4.25 -0.52649,0 -3.68359,2.42854 -7.01577,5.39675 -8.04379,7.16518 -13.14579,9.58411 -21.73333,10.30405 l -7.02881,0.58927 0.005,-3.39503 0.005,-3.39504 6.29814,-0.0399 c 7.27614,-0.0461 12.09777,-2.41745 19.91134,-9.79271 2.59625,-2.45061 11.37125,-8.15206 19.5,-12.66988 16.17839,-8.99167 21.99551,-13.24227 26.35095,-19.25478 4.96784,-6.85791 6.87754,-13.61475 7.20851,-25.50489 0.35682,-12.81875 2.45582,-18.25239 10.71507,-27.73785 2.87339,-3.3 5.96251,-7.57707 6.86469,-9.50461 4.61394,-9.8578 10.44249,-17.05887 16.14033,-19.94112 4.39524,-2.22333 6.40491,-2.69249 17.28388,-4.03499 4.83113,-0.59617 10.3531,-1.83226 12.27104,-2.74686 3.61173,-1.72184 9.44605,-9.5577 9.44605,-12.68532 0,-0.9558 1.85839,-6.49098 4.12977,-12.3004 6.39631,-16.359676 12.84523,-21.641026 32.21982,-26.386466 10.09714,-2.4731 33.23318,0.9441 45.60079,6.73525 21.77,10.19384 43.48997,16.987486 50.441,15.777126 7.88536,-1.37306 15.18527,-0.42893 31.4197,4.06364 17.95923,4.96988 19.15581,5.0998 37.18892,4.0378 12.13085,-0.71441 12.60336,-0.66561 16,1.65223 1.925,1.3136 6.35614,6.56784 9.84697,11.67607 4.67386,6.83939 8.36438,10.87956 14,15.32638 16.91929,13.35028 26.8189,23.05444 29.55823,28.97464 1.43619,3.10385 7.57487,12.27221 13.64153,20.37414 6.06666,8.10192 11.78247,16.13741 12.70181,17.85663 1.33994,2.50581 1.78702,7.19385 2.25379,23.63346 0.57487,20.24635 0.62143,20.59125 3.65536,27.07462 1.6902,3.61186 10.34768,16.88344 19.23888,29.4924 8.8911,12.60897 17.7312,25.17539 19.6446,27.92539 16.0483,23.06519 20.0671,27.6054 30.6986,34.6815 l 3.7398,2.48911 -2.2398,2.10218 -2.2398,2.10218 z"
       style="display:inline;fill:#000000;stroke-width:1;stroke-miterlimit:4;stroke-dasharray:none"
       sodipodi:nodetypes="ssssscssssssssssssssssssssssssssscccssssssssscsssssssssssssssssscccs" />
    <path
       inkscape:connector-curvature="0"
       id="v_track_204"
       d="m 1021.8274,400.68244 c -10.6991,-2.75765 -21.1415,-7.12976 -40.36573,-16.90053 -18.9837,-9.64862 -23.7566,-11.66989 -29.5929,-12.53228 -6.4399,-0.95159 -18.5414,-6.11266 -18.5414,-7.90756 0,-0.38813 0.8783,-1.50054 1.9518,-2.47203 1.8705,-1.69281 2.095,-1.67781 5.3931,0.36053 1.8927,1.16977 7.4792,2.98975 12.4143,4.0444 7.3384,1.56821 13.0017,3.9359 31.0874,12.99703 25.53043,12.79089 38.40953,17.58662 44.59233,16.60455 2.2336,-0.35479 8.7717,-2.89297 14.5292,-5.64039 l 10.4681,-4.99531 23.5319,0.17297 c 21.8495,0.16061 23.9297,0.0205 29.0957,-1.95939 6.4012,-2.45332 8.378,-4.1041 13.9555,-11.65409 4.6899,-6.34849 7.3839,-8.34054 12.3749,-9.15048 3.4979,-0.56762 3.6058,-0.49141 3.6058,2.54571 0,2.64458 -0.3755,3.13084 -2.418,3.13084 -1.6807,0 -3.7389,1.56524 -6.75,5.13334 -14.6105,17.3132 -14.7395,17.36183 -48.5614,18.30208 l -25.2294,0.70137 -10.246,4.60006 c -9.8244,4.41079 -16.4923,5.85712 -21.2952,4.61918 z"
       style="display:inline;fill:#000000;stroke-width:1;stroke-miterlimit:4;stroke-dasharray:none"
       sodipodi:nodetypes="sssscssssscsssssssscss" />
    <path
       inkscape:connector-curvature="0"
       id="v_track_205"
       d="m 1370.3228,445.27793 c -20.6665,-3.51854 -22.403,-4.04677 -37.5,-11.40717 -16.5858,-8.08627 -17.9588,-8.58923 -31.26,-11.45164 -12.0341,-2.58971 -15.4969,-4.3254 -21.6536,-10.85346 -6.3015,-6.6817 -14.2006,-11.36987 -31.5864,-18.74676 -19.675,-8.3482 -22.0542,-9.70999 -30.2639,-17.32213 -4.3907,-4.07111 -9.0439,-7.42192 -11.3409,-8.16664 -2.1424,-0.6946 -6.5729,-2.60306 -9.8456,-4.24104 -6.946,-3.47644 -12.4623,-3.37483 -19.7312,0.36343 -4.3329,2.22832 -4.7352,2.27475 -28.0684,3.23865 l -7.75,0.32015 0,-3.24291 0,-3.24291 14.75,-0.41799 c 13.2402,-0.3752 15.3877,-0.69166 20.9801,-3.09171 8.9045,-3.82143 13.5996,-3.5592 24.6782,1.37828 14.4683,6.44825 15.3192,6.97158 20.6525,12.70193 4.1961,4.50846 7.3228,6.52579 18.2514,11.77591 7.2533,3.4845 15.2128,7.02166 17.6878,7.86035 8.073,2.7357 16.2205,7.82561 23.427,14.63542 3.8901,3.67605 8.0166,7.17809 9.1699,7.78232 1.1533,0.60422 7.73,2.47642 14.6148,4.16045 14.1966,3.47247 20.2708,5.78143 33.7883,12.8439 10.0434,5.24737 12.8158,6.03655 30.75,8.75329 l 11.25,1.70419 0,3.36512 c 0,1.85081 -0.1125,3.3029 -0.25,3.22687 -0.1375,-0.076 -4.975,-0.94269 -10.75,-1.9259 z"
       style="display:inline;fill:#000000;stroke-width:1;stroke-miterlimit:4;stroke-dasharray:none"
       sodipodi:nodetypes="sssssssssscccssssssssssscscs" />
    <path
       inkscape:connector-curvature="0"
       id="v_track_206"
       d="m 1535.5332,546.49214 c -2.5614,-4.55752 -2.8365,-11.17561 -0.7737,-18.61385 1.6739,-6.03592 8.2042,-23.87337 10.2075,-27.88175 0.7922,-1.58496 1.7124,-5.48453 2.0449,-8.66572 0.7934,-7.59165 -0.3694,-9.41078 -15.3616,-24.03207 -16.4893,-16.08136 -19.0148,-16.99587 -34.3012,-12.42046 -8.7183,2.6095 -16.1095,3.16926 -20.3848,1.5438 -1.3833,-0.52592 -4.2251,-1.16506 -6.3151,-1.42032 -5.0589,-0.61785 -12.4736,-3.19246 -19.7529,-6.85877 -5.4226,-2.73122 -6.6248,-2.95786 -13.5,-2.54518 -5.4898,0.32953 -8.9267,1.15755 -12.6076,3.03751 -7.8121,3.98985 -16.9662,4.52202 -29.3779,1.70789 -9.8534,-2.23408 -10.0617,-2.34017 -10.0617,-5.12313 0,-3.41162 0.01,-3.41195 12.0468,-0.75945 11.9848,2.64002 18.9881,2.0438 26.6261,-2.26682 5.1409,-2.90133 5.8554,-3.03318 14.121,-2.60564 6.9388,0.35893 10.2235,1.10422 16.1813,3.67149 9.7612,4.20621 27.4231,8.40997 32.0248,7.62231 1.925,-0.32949 8.2806,-1.7966 14.1236,-3.26025 l 10.6236,-2.66117 4.3659,1.95887 c 9.4706,4.2492 30.4899,24.04584 35.3214,33.26678 2.3437,4.47293 2.389,14.28538 0.091,19.78442 -0.8393,2.00855 -1.5259,4.36195 -1.5259,5.22977 0,0.86782 -2.25,7.29092 -5,14.27354 -6.3465,16.11463 -6.5159,22.50887 -0.7591,28.65435 l 2.1077,2.25 -3.9901,0 c -3.5944,0 -4.2069,-0.38549 -6.1744,-3.88615 z"
       style="display:inline;fill:#000000;stroke-width:1;stroke-miterlimit:4;stroke-dasharray:none"
       sodipodi:nodetypes="csccssssssssscssssscsscssscscc" />
    <path
       inkscape:connector-curvature="0"
       id="v_track_207"
       d="m 1568.5047,687.6222 c 0.087,-9.87085 -0.2132,-11.69047 -3.6759,-22.24974 -5.9472,-18.13507 -6.6466,-34.21744 -2.8265,-64.9977 3.036,-24.46287 0.5177,-31.44683 -15.1831,-42.10759 l -5,-3.39497 4.8614,-0.30934 c 4.5708,-0.29085 5.1983,-0.0159 10.5,4.59932 8.9687,7.80765 11.1354,12.11615 12.1882,24.23681 1.0768,12.39675 2.8384,16.21384 9.5233,20.63516 11.187,7.39894 12.4271,8.38866 12.4271,9.91832 0,1.38728 -1.0936,1.5159 -8.25,0.97035 -9.4907,-0.7235 -12.1051,0.18099 -15.0378,5.20253 -1.5416,2.63955 -1.861,4.98283 -1.7036,12.49775 0.1065,5.08701 0.1416,10.8788 0.078,12.87065 -0.064,1.99185 1.5428,8.74185 3.5699,15 3.3084,10.21357 3.7295,12.73493 4.1128,24.62845 l 0.4271,13.25 -3.053,0 -3.053,0 0.095,-10.75 z m 3.228,-79.11002 c 0.2887,-0.46709 -0.5863,-1.89311 -1.9443,-3.16893 l -2.4692,-2.31968 0,4.2095 c 0,3.85943 0.1617,4.12296 1.9443,3.16894 1.0694,-0.57231 2.1805,-1.42273 2.4692,-1.88983 z"
       style="display:inline;fill:#000000;stroke-width:1;stroke-miterlimit:4;stroke-dasharray:none"
       sodipodi:nodetypes="cssscscsssssscsscccccsccscs" />
    <path
       inkscape:connector-curvature="0"
       id="v_track_208"
       d="m 1623.2416,876.7469 c -11.5194,-17.25232 -16.8444,-26.17782 -16.887,-28.30501 -0.015,-0.77193 -1.2006,-3.88203 -2.6337,-6.91133 -1.832,-3.87256 -2.7487,-7.7609 -3.0874,-13.09649 -0.4663,-7.34456 -0.3664,-7.77363 3.1056,-13.33867 12.2634,-19.65607 11.8834,-18.4246 8.1561,-26.42993 -3.3515,-7.19826 -15.3035,-27.29464 -18.0324,-30.32007 -1.2402,-1.375 -3.8044,-5.425 -5.698,-9 -1.8937,-3.575 -6.2704,-11.36705 -9.726,-17.31567 -7.6729,-13.20857 -9.6927,-17.78525 -10.5628,-23.93433 l -0.672,-4.75 3.5612,0 c 3.3994,0 3.5613,0.15815 3.5613,3.47976 0,1.91387 0.7667,5.40137 1.7037,7.75 2.1733,5.44736 20.4222,37.10015 31.7922,55.14381 8.4796,13.45655 12.5274,22.16423 12.4821,26.85145 -0.03,3.09504 -2.9935,9.38921 -7.222,15.33823 -7.1565,10.06821 -7.8486,13.09235 -5.3635,23.43675 1.9789,8.23731 8.4994,20.37426 20.2341,37.66313 10.1215,14.91211 10.4603,15.58336 8.7952,17.42325 -0.9525,1.05249 -2.0377,1.91362 -2.4117,1.91362 -0.374,0 -5.3667,-7.01932 -11.095,-15.5985 z"
       style="display:inline;fill:#000000;stroke-width:1;stroke-miterlimit:4;stroke-dasharray:none"
       sodipodi:nodetypes="scssssscsccsssscssssss" />
    <path
       inkscape:connector-curvature="0"
       id="v_track_209"
       d="m 1817.556,939.2459 c -0.984,-1.02325 -10.4686,-1.44345 -43,-1.90506 -47.0056,-0.66699 -42.7355,0.057 -55.2669,-9.37022 -3.978,-2.99262 -9.3113,-6.19386 -11.8518,-7.11386 -2.5404,-0.92001 -10.2439,-3.98006 -17.1189,-6.80012 l -12.5,-5.12738 -14.527,-0.53569 c -16.0182,-0.59068 -16.1951,-0.65505 -22.9455,-8.34886 -3.3324,-3.79806 -3.3378,-3.82099 -1.3691,-5.78968 1.9687,-1.96869 1.9965,-1.95655 7.0162,3.06317 l 5.0397,5.03968 13.2031,0 13.2031,0 11.0619,4.53064 c 6.084,2.49185 13.0041,5.41543 15.3779,6.49684 2.3739,1.08142 5.2694,2.11168 6.4344,2.28949 1.1651,0.1778 6.8983,3.66672 12.7404,7.75315 l 10.6221,7.42988 33.5714,0.15301 c 18.4643,0.0842 36.0464,0.53415 39.0714,1 3.025,0.46584 10.5951,0.76169 16.8224,0.65744 9.2989,-0.15567 11.9797,-0.55469 15,-2.23268 6.324,-3.51342 21.1127,-11.07777 21.6576,-11.07777 0.286,0 0.52,1.37476 0.52,3.05503 0,2.72118 -0.5737,3.31112 -5.25,5.39853 -2.8875,1.28893 -6.9637,3.51839 -9.0583,4.95437 -7.6071,5.21532 -11.844,6.79224 -19.6098,7.29858 -5.4918,0.35807 -7.9299,0.13244 -8.8443,-0.81849 z"
       style="display:inline;fill:#000000;stroke-width:1;stroke-miterlimit:4;stroke-dasharray:none"
       sodipodi:nodetypes="csscscsssscccsccscssssssscsc" />
    <path
       inkscape:connector-curvature="0"
       id="v_track_210"
       d="m 1864.3383,921.08497 c 0.01,-3.18283 0.2223,-3.33277 12.75,-8.89672 7.0084,-3.11264 14.1819,-5.90927 15.9412,-6.21475 5.7204,-0.99326 16.1949,-6.83288 24.083,-13.42653 17.3399,-14.49428 22.6625,-16.43173 32.6188,-11.87356 5.2453,2.40137 5.5995,2.78503 5.5995,6.06543 l 0,3.50191 -5.6015,-2.94659 c -3.0809,-1.62062 -6.7934,-2.94236 -8.25,-2.9372 -3.6551,0.013 -11.3283,4.70065 -19.6485,12.00362 -8.149,7.15271 -16.5555,12.00266 -25,14.42329 -3.3,0.94595 -9.6,3.32676 -14,5.2907 -4.4,1.96394 -10.3625,4.62312 -13.25,5.9093 l -5.25,2.33849 0.01,-3.23739 z"
       style="display:inline;fill:#000000;stroke-width:1;stroke-miterlimit:4;stroke-dasharray:none"
       sodipodi:nodetypes="cssssscscssssccc" />
  </g>
  <g
     style="display:inline"
     inkscape:label="poi"
     id="g4210"
     inkscape:groupmode="layer"
     sodipodi:insensitive="true">
    <circle
       r="7.282249"
       cy="837.02087"
       cx="36.792328"
       class="v_station"
       id="circle4212"
       style="fill:#000000;fill-opacity:1;stroke:#000000;stroke-width:7.0999999;stroke-miterlimit:4;stroke-dasharray:none;stroke-opacity:1" />
    <circle
       r="7.282249"
       cy="787.55945"
       cx="96.71933"
       class="v_station"
       id="circle4214"
       style="fill:#000000;fill-opacity:1;stroke:#000000;stroke-width:7.0999999;stroke-miterlimit:4;stroke-dasharray:none;stroke-opacity:1" />
    <circle
       r="7.282249"
       cy="692.93457"
       cx="139.97696"
       class="v_station"
       id="circle4216"
       style="fill:#000000;fill-opacity:1;stroke:#000000;stroke-width:7.0999999;stroke-miterlimit:4;stroke-dasharray:none;stroke-opacity:1" />
    <circle
       r="7.282249"
       cy="612.91656"
       cx="165.6479"
       class="v_station"
       id="circle4218"
       style="fill:#000000;fill-opacity:1;stroke:#000000;stroke-width:7.0999999;stroke-miterlimit:4;stroke-dasharray:none;stroke-opacity:1" />
    <circle
       r="7.282249"
       cy="545.05945"
       cx="123.8622"
       class="v_station"
       id="circle4220"
       style="fill:#000000;fill-opacity:1;stroke:#000000;stroke-width:7.0999999;stroke-miterlimit:4;stroke-dasharray:none;stroke-opacity:1" />
    <circle
       r="7.282249"
       cy="456.84515"
       cx="107.43362"
       class="v_station"
       id="circle4222"
       style="fill:#000000;fill-opacity:1;stroke:#000000;stroke-width:7.0999999;stroke-miterlimit:4;stroke-dasharray:none;stroke-opacity:1" />
    <circle
       r="7.282249"
       cy="415.41663"
       cx="141.00507"
       class="v_station"
       id="circle4224"
       style="fill:#000000;fill-opacity:1;stroke:#000000;stroke-width:7.0999999;stroke-miterlimit:4;stroke-dasharray:none;stroke-opacity:1" />
    <circle
       r="7.282249"
       cy="370.4166"
       cx="173.1479"
       class="v_station"
       id="circle4226"
       style="fill:#000000;fill-opacity:1;stroke:#000000;stroke-width:7.0999999;stroke-miterlimit:4;stroke-dasharray:none;stroke-opacity:1" />
    <circle
       r="7.282249"
       cy="314.70233"
       cx="210.29076"
       class="v_station"
       id="circle4228"
       style="fill:#000000;fill-opacity:1;stroke:#000000;stroke-width:7.0999999;stroke-miterlimit:4;stroke-dasharray:none;stroke-opacity:1" />
    <circle
       r="7.282249"
       cy="255.77374"
       cx="236.71935"
       class="v_station"
       id="circle4230"
       style="fill:#000000;fill-opacity:1;stroke:#000000;stroke-width:7.0999999;stroke-miterlimit:4;stroke-dasharray:none;stroke-opacity:1" />
    <circle
       r="7.282249"
       cy="251.48804"
       cx="313.14795"
       class="v_station"
       id="circle4232"
       style="fill:#000000;fill-opacity:1;stroke:#000000;stroke-width:7.0999999;stroke-miterlimit:4;stroke-dasharray:none;stroke-opacity:1" />
    <circle
       r="7.282249"
       cy="255.4166"
       cx="357.43362"
       class="v_station"
       id="circle4234"
       style="fill:#000000;fill-opacity:1;stroke:#000000;stroke-width:7.0999999;stroke-miterlimit:4;stroke-dasharray:none;stroke-opacity:1" />
    <circle
       r="7.282249"
       cy="252.91663"
       cx="433.14789"
       class="v_station"
       id="circle4236"
       style="fill:#000000;fill-opacity:1;stroke:#000000;stroke-width:7.0999999;stroke-miterlimit:4;stroke-dasharray:none;stroke-opacity:1" />
    <circle
       r="7.282249"
       cy="195.05948"
       cx="482.07648"
       class="v_station"
       id="circle4238"
       style="fill:#000000;fill-opacity:1;stroke:#000000;stroke-width:7.0999999;stroke-miterlimit:4;stroke-dasharray:none;stroke-opacity:1" />
    <circle
       r="7.282249"
       cy="155.05946"
       cx="503.14795"
       class="v_station"
       id="circle4240"
       style="fill:#000000;fill-opacity:1;stroke:#000000;stroke-width:7.0999999;stroke-miterlimit:4;stroke-dasharray:none;stroke-opacity:1" />
    <circle
       r="7.282249"
       cy="117.91661"
       cx="556.71936"
       class="v_station"
       id="circle4242"
       style="fill:#000000;fill-opacity:1;stroke:#000000;stroke-width:7.0999999;stroke-miterlimit:4;stroke-dasharray:none;stroke-opacity:1" />
    <circle
       r="7.282249"
       cy="84.702339"
       cx="609.21936"
       class="v_station"
       id="circle4244"
       style="fill:#000000;fill-opacity:1;stroke:#000000;stroke-width:7.0999999;stroke-miterlimit:4;stroke-dasharray:none;stroke-opacity:1" />
    <circle
       r="7.282249"
       cy="94.702332"
       cx="641.71936"
       class="v_station"
       id="circle4246"
       style="fill:#000000;fill-opacity:1;stroke:#000000;stroke-width:7.0999999;stroke-miterlimit:4;stroke-dasharray:none;stroke-opacity:1" />
    <circle
       r="7.282249"
       cy="106.84518"
       cx="687.43365"
       class="v_station"
       id="circle4248"
       style="fill:#000000;fill-opacity:1;stroke:#000000;stroke-width:7.0999999;stroke-miterlimit:4;stroke-dasharray:none;stroke-opacity:1" />
    <circle
       r="7.282249"
       cy="115.41661"
       cx="733.14795"
       class="v_station"
       id="circle4250"
       style="fill:#000000;fill-opacity:1;stroke:#000000;stroke-width:7.0999999;stroke-miterlimit:4;stroke-dasharray:none;stroke-opacity:1" />
    <circle
       r="7.282249"
       cy="169.14952"
       cx="819.2337"
       class="v_station"
       id="circle4252"
       style="fill:#000000;fill-opacity:1;stroke:#000000;stroke-width:7.0999999;stroke-miterlimit:4;stroke-dasharray:none;stroke-opacity:1" />
    <circle
       r="7.282249"
       cy="268.14447"
       cx="856.60938"
       class="v_station"
       id="circle4254"
       style="fill:#000000;fill-opacity:1;stroke:#000000;stroke-width:7.0999999;stroke-miterlimit:4;stroke-dasharray:none;stroke-opacity:1" />
    <circle
       r="7.282249"
       cy="325.72314"
       cx="896.00537"
       class="v_station"
       id="circle4256"
       style="fill:#000000;fill-opacity:1;stroke:#000000;stroke-width:7.0999999;stroke-miterlimit:4;stroke-dasharray:none;stroke-opacity:1" />
    <circle
       r="7.282249"
       cy="394.91864"
       cx="1011.1628"
       class="v_station"
       id="circle4258"
       style="fill:#000000;fill-opacity:1;stroke:#000000;stroke-width:7.0999999;stroke-miterlimit:4;stroke-dasharray:none;stroke-opacity:1" />
    <circle
       r="7.282249"
       cy="386.8374"
       cx="1097.0256"
       class="v_station"
       id="circle4260"
       style="fill:#000000;fill-opacity:1;stroke:#000000;stroke-width:7.0999999;stroke-miterlimit:4;stroke-dasharray:none;stroke-opacity:1" />
    <circle
       r="7.282249"
       cy="363.60388"
       cx="1204.1018"
       class="v_station"
       id="circle4262"
       style="fill:#000000;fill-opacity:1;stroke:#000000;stroke-width:7.0999999;stroke-miterlimit:4;stroke-dasharray:none;stroke-opacity:1" />
    <circle
       r="7.282249"
       cy="394.41354"
       cx="1259.6602"
       class="v_station"
       id="circle4264"
       style="fill:#000000;fill-opacity:1;stroke:#000000;stroke-width:7.0999999;stroke-miterlimit:4;stroke-dasharray:none;stroke-opacity:1" />
    <circle
       r="7.282249"
       cy="431.28412"
       cx="1334.9165"
       class="v_station"
       id="circle4266"
       style="fill:#000000;fill-opacity:1;stroke:#000000;stroke-width:7.0999999;stroke-miterlimit:4;stroke-dasharray:none;stroke-opacity:1" />
    <circle
       r="7.282249"
       cy="444.92117"
       cx="1426.8405"
       class="v_station"
       id="circle4268"
       style="fill:#000000;fill-opacity:1;stroke:#000000;stroke-width:7.0999999;stroke-miterlimit:4;stroke-dasharray:none;stroke-opacity:1" />
    <circle
       r="7.282249"
       cy="453.00238"
       cx="1473.3075"
       class="v_station"
       id="circle4270"
       style="fill:#000000;fill-opacity:1;stroke:#000000;stroke-width:7.0999999;stroke-miterlimit:4;stroke-dasharray:none;stroke-opacity:1" />
    <circle
       r="7.282249"
       cy="503.00491"
       cx="1546.5435"
       class="v_station"
       id="circle4272"
       style="fill:#000000;fill-opacity:1;stroke:#000000;stroke-width:7.0999999;stroke-miterlimit:4;stroke-dasharray:none;stroke-opacity:1" />
    <circle
       r="7.282249"
       cy="637.86029"
       cx="1561.1907"
       class="v_station"
       id="circle4274"
       style="fill:#000000;fill-opacity:1;stroke:#000000;stroke-width:7.0999999;stroke-miterlimit:4;stroke-dasharray:none;stroke-opacity:1" />
    <circle
       r="7.282249"
       cy="752.00751"
       cx="1593.5156"
       class="v_station"
       id="circle4276"
       style="fill:#000000;fill-opacity:1;stroke:#000000;stroke-width:7.0999999;stroke-miterlimit:4;stroke-dasharray:none;stroke-opacity:1" />
    <circle
       r="7.282249"
       cy="842.92126"
       cx="1607.1527"
       class="v_station"
       id="circle4278"
       style="fill:#000000;fill-opacity:1;stroke:#000000;stroke-width:7.0999999;stroke-miterlimit:4;stroke-dasharray:none;stroke-opacity:1" />
    <circle
       r="7.282249"
       cy="917.67255"
       cx="1706.6527"
       class="v_station"
       id="circle4280"
       style="fill:#000000;fill-opacity:1;stroke:#000000;stroke-width:7.0999999;stroke-miterlimit:4;stroke-dasharray:none;stroke-opacity:1" />
    <circle
       r="7.282249"
       cy="935.35022"
       cx="1811.7086"
       class="v_station"
       id="circle4282"
       style="fill:#000000;fill-opacity:1;stroke:#000000;stroke-width:7.0999999;stroke-miterlimit:4;stroke-dasharray:none;stroke-opacity:1" />
    <circle
       r="7.282249"
       cy="907.57098"
       cx="1895.5511"
       class="v_station"
       id="circle4284"
       style="fill:#000000;fill-opacity:1;stroke:#000000;stroke-width:7.0999999;stroke-miterlimit:4;stroke-dasharray:none;stroke-opacity:1" />
    <circle
       r="7.282249"
       cy="886.35785"
       cx="1956.6654"
       class="v_station"
       id="circle4286"
       style="fill:#000000;fill-opacity:1;stroke:#000000;stroke-width:7.0999999;stroke-miterlimit:4;stroke-dasharray:none;stroke-opacity:1" />
    <rect
       transform="matrix(0.71898838,-0.6950221,0.6950221,0.71898838,0,0)"
       ry="0.14876911"
       y="1588.4561"
       x="729.70996"
       height="15.880999"
       width="15.880999"
       class="v_depot"
       id="rect4288"
       style="fill:#000000;fill-opacity:1;stroke:#000000;stroke-width:7.0999999;stroke-miterlimit:4;stroke-dasharray:none;stroke-opacity:1" />
  </g>
  <g
     inkscape:groupmode="layer"
     id="layer4"
     inkscape:label="point"
     style="display:inline"
     sodipodi:insensitive="true">
    <circle
       id="v_station_1"
       class="v_station"
       cx="36.792328"
       cy="837.02087"
       r="7.282249" />
    <circle
       id="v_station_2"
       class="v_station"
       cx="96.71933"
       cy="787.55945"
       r="7.282249" />
    <circle
       id="v_station_3"
       class="v_station"
       cx="139.97696"
       cy="692.93457"
       r="7.282249" />
    <circle
       id="v_station_4"
       class="v_station"
       cx="165.6479"
       cy="612.91656"
       r="7.282249" />
    <circle
       id="v_station_5"
       class="v_station"
       cx="123.8622"
       cy="545.05945"
       r="7.282249" />
    <circle
       id="v_station_6"
       class="v_station"
       cx="107.43362"
       cy="456.84515"
       r="7.282249" />
    <circle
       id="v_station_7"
       class="v_station"
       cx="141.00507"
       cy="415.41663"
       r="7.282249" />
    <circle
       id="v_station_8"
       class="v_station"
       cx="173.1479"
       cy="370.4166"
       r="7.282249" />
    <circle
       id="v_station_9"
       class="v_station"
       cx="210.29076"
       cy="314.70233"
       r="7.282249" />
    <circle
       id="v_station_10"
       class="v_station"
       cx="236.71935"
       cy="255.77374"
       r="7.282249" />
    <circle
       id="v_station_11"
       class="v_station"
       cx="313.14795"
       cy="251.48804"
       r="7.282249" />
    <circle
       id="v_station_12"
       class="v_station"
       cx="357.43362"
       cy="255.4166"
       r="7.282249" />
    <circle
       id="v_station_13"
       class="v_station"
       cx="433.14789"
       cy="252.91663"
       r="7.282249" />
    <circle
       id="v_station_14"
       class="v_station"
       cx="482.07648"
       cy="195.05948"
       r="7.282249" />
    <circle
       id="v_station_15"
       class="v_station"
       cx="503.14795"
       cy="155.05946"
       r="7.282249" />
    <circle
       id="v_station_16"
       class="v_station"
       cx="556.71936"
       cy="117.91661"
       r="7.282249" />
    <circle
       id="v_station_17"
       class="v_station"
       cx="609.21936"
       cy="84.702339"
       r="7.282249" />
    <circle
       id="v_station_18"
       class="v_station"
       cx="641.71936"
       cy="94.702332"
       r="7.282249" />
    <circle
       id="v_station_19"
       class="v_station"
       cx="687.43365"
       cy="106.84518"
       r="7.282249" />
    <circle
       id="v_station_20"
       class="v_station"
       cx="733.14795"
       cy="115.41661"
       r="7.282249" />
    <circle
       id="v_station_21"
       class="v_station"
       cx="819.2337"
       cy="169.14952"
       r="7.282249" />
    <circle
       id="v_station_22"
       class="v_station"
       cx="856.60938"
       cy="268.14447"
       r="7.282249" />
    <circle
       id="v_station_23"
       class="v_station"
       cx="896.00537"
       cy="325.72314"
       r="7.282249" />
    <circle
       id="v_station_24"
       class="v_station"
       cx="1011.1628"
       cy="394.91864"
       r="7.282249" />
    <circle
       id="v_station_25"
       class="v_station"
       cx="1097.0256"
       cy="386.8374"
       r="7.282249" />
    <circle
       id="v_station_26"
       class="v_station"
       cx="1204.1018"
       cy="363.60388"
       r="7.282249" />
    <circle
       id="v_station_27"
       class="v_station"
       cx="1259.6602"
       cy="394.41354"
       r="7.282249" />
    <circle
       id="v_station_28"
       class="v_station"
       cx="1334.9165"
       cy="431.28412"
       r="7.282249" />
    <circle
       id="v_station_29"
       class="v_station"
       cx="1426.8405"
       cy="444.92117"
       r="7.282249" />
    <circle
       id="v_station_30"
       class="v_station"
       cx="1473.3075"
       cy="453.00238"
       r="7.282249" />
    <circle
       id="v_station_31"
       class="v_station"
       cx="1546.5435"
       cy="503.00491"
       r="7.282249" />
    <circle
       id="v_station_32"
       class="v_station"
       cx="1561.1907"
       cy="637.86029"
       r="7.282249" />
    <circle
       id="v_station_33"
       class="v_station"
       cx="1593.5156"
       cy="752.00751"
       r="7.282249" />
    <circle
       id="v_station_34"
       class="v_station"
       cx="1607.1527"
       cy="842.92126"
       r="7.282249" />
    <circle
       id="v_station_35"
       class="v_station"
       cx="1706.6527"
       cy="917.67255"
       r="7.282249" />
    <circle
       id="v_station_36"
       class="v_station"
       cx="1811.7086"
       cy="935.35022"
       r="7.282249" />
    <circle
       id="v_station_37"
       class="v_station"
       cx="1895.5511"
       cy="907.57098"
       r="7.282249" />
    <circle
       id="v_station_38"
       class="v_station"
       cx="1956.6654"
       cy="886.35785"
       r="7.282249" />
    <rect
       id="v_depot_1"
       class="v_depot"
       width="15.880999"
       height="15.880999"
       x="729.70996"
       y="1588.4561"
       ry="0.14876911"
       transform="matrix(0.71898838,-0.6950221,0.6950221,0.71898838,0,0)" />
  </g>
  <g
     inkscape:groupmode="layer"
     id="layer2"
     inkscape:label="legend"
     style="display:inline">
    <path
       id="legend_v_track_1"
       class="v_track"
       d="m 41.168754,59.168203 -31.5713,0 0,4.82143 31.807,0 0,-4.82143 z"
       inkscape:connector-curvature="0" />
    <path
       id="legend_v_track_2"
       class="v_track"
       d="m 40.769497,87.224922 -31.5714,0 0,4.821429 31.807,0 0,-4.821429 z"
       inkscape:connector-curvature="0" />
    <path
       id="legend_v_track_3"
       class="v_track"
       d="m 40.738897,113.46169 -31.5714,0 0,4.82143 31.807,0 0,-4.82143 z"
       inkscape:connector-curvature="0" />
    <path
       id="legend_v_track_4"
       class="v_track"
       d="m 40.560668,138.69358 -31.5713,0 0,4.82143 31.807,0 0,-4.82143 z"
       inkscape:connector-curvature="0" />
    <rect
       id="legend_v_depot_1"
       class="v_depot"
       width="15.880999"
       height="15.880999"
       x="-20.387674"
       y="65.431511"
       ry="0.14876911"
       transform="matrix(0.71898838,-0.6950221,0.6950221,0.71898838,0,0)" />
    <rect
       id="legend_v_depot_2"
       class="v_depot"
       width="15.880999"
       height="15.880999"
       x="-40.119755"
       y="85.596336"
       ry="0.14876911"
       transform="matrix(0.71898838,-0.6950221,0.6950221,0.71898838,0,0)" />
    <rect
       id="legend_v_depot_3"
       class="v_depot"
       width="15.880999"
       height="15.880999"
       x="-58.408985"
       y="104.5163"
       ry="0.14876911"
       transform="matrix(0.71898838,-0.6950221,0.6950221,0.71898838,0,0)" />
    <rect
       id="legend_v_depot_4"
       class="v_depot"
       width="15.880999"
       height="15.880999"
       x="-76.106972"
       y="122.35482"
       ry="0.14876911"
       transform="matrix(0.71898838,-0.6950221,0.6950221,0.71898838,0,0)" />
    <circle
       id="legend_v_station_1"
       class="v_station"
       cx="8.52281"
       cy="60.297352"
       r="7.282249" />
    <circle
       id="legend_v_station_2"
       class="v_station"
       cx="8.3748245"
       cy="89.173416"
       r="7.282249" />
    <circle
       id="legend_v_station_3"
       class="v_station"
       cx="8.3748245"
       cy="115.48817"
       r="7.282249" />
    <circle
       id="legend_v_station_4"
       class="v_station"
       cx="8.0482693"
       cy="141.11922"
       r="7.282249" />
    <path
       style="fill:none;fill-rule:evenodd;stroke:#999999;stroke-width:1.0738492px;stroke-linecap:butt;stroke-linejoin:miter;stroke-opacity:1"
       d="m 60.782268,141.11919 20.9674,0"
       id="path4269"
       inkscape:connector-curvature="0" />
    <path
       style="fill:none;fill-rule:evenodd;stroke:#999999;stroke-width:1.0738492px;stroke-linecap:butt;stroke-linejoin:miter;stroke-opacity:1"
       d="m 60.720197,116.49826 20.9674,0"
       id="path4269-2"
       inkscape:connector-curvature="0" />
    <path
       style="fill:none;fill-rule:evenodd;stroke:#999999;stroke-width:1.0738492px;stroke-linecap:butt;stroke-linejoin:miter;stroke-opacity:1"
       d="m 60.836597,89.173391 20.9674,0"
       id="path4269-8"
       inkscape:connector-curvature="0" />
    <path
       style="fill:none;fill-rule:evenodd;stroke:#999999;stroke-width:1.0738492px;stroke-linecap:butt;stroke-linejoin:miter;stroke-opacity:1"
       d="m 59.897054,62.317683 20.9674,0"
       id="path4269-4"
       inkscape:connector-curvature="0" />
  </g>
  <g
     inkscape:groupmode="layer"
     id="layer3"
     inkscape:label="addhoc line"
     style="display:inline">
    <path
       style="fill:#ffffff;fill-rule:evenodd;stroke:#ffffff;stroke-width:2;stroke-linecap:butt;stroke-linejoin:miter;stroke-miterlimit:4;stroke-dasharray:none;stroke-opacity:1;fill-opacity:1"
       d="m 312.92857,236 0,-13.92857"
       id="path4299"
       inkscape:connector-curvature="0" />
    <path
       style="fill:#ffffff;fill-rule:evenodd;stroke:#ffffff;stroke-width:2;stroke-linecap:butt;stroke-linejoin:miter;stroke-miterlimit:4;stroke-dasharray:none;stroke-opacity:1;fill-opacity:1"
       d="m 357.21428,270.28572 0,15.00001"
       id="path4301"
       inkscape:connector-curvature="0" />
    <path
       style="fill:#ffffff;fill-rule:evenodd;stroke:#ffffff;stroke-width:2;stroke-linecap:butt;stroke-linejoin:miter;stroke-miterlimit:4;stroke-dasharray:none;stroke-opacity:1;fill-opacity:1"
       d="m 608.46428,70.46429 0,-19.999999"
       id="path4299-4"
       inkscape:connector-curvature="0" />
    <path
       style="fill:#ffffff;fill-rule:evenodd;stroke:#ffffff;stroke-width:2;stroke-linecap:butt;stroke-linejoin:miter;stroke-miterlimit:4;stroke-dasharray:none;stroke-opacity:1;fill-opacity:1"
       d="m 642.57143,81.535719 0,-52.499999"
       id="path4299-2"
       inkscape:connector-curvature="0" />
    <path
       style="fill:#ffffff;fill-rule:evenodd;stroke:#ffffff;stroke-width:2;stroke-linecap:butt;stroke-linejoin:miter;stroke-miterlimit:4;stroke-dasharray:none;stroke-opacity:1;fill-opacity:1"
       d="m 687.57142,93.321436 0,-31.071429"
       id="path4299-9"
       inkscape:connector-curvature="0" />
    <path
       style="fill:#ffffff;fill-rule:evenodd;stroke:#ffffff;stroke-width:2;stroke-linecap:butt;stroke-linejoin:miter;stroke-miterlimit:4;stroke-dasharray:none;stroke-opacity:1;fill-opacity:1"
       d="m 733.2857,102.60715 0,-9.285714"
       id="path4299-5"
       inkscape:connector-curvature="0" />
    <path
       style="fill:#ffffff;fill-rule:evenodd;stroke:#ffffff;stroke-width:2;stroke-linecap:butt;stroke-linejoin:miter;stroke-miterlimit:4;stroke-dasharray:none;stroke-opacity:1;fill-opacity:1"
       d="m 1096.8571,421.35714 0,-20.35714"
       id="path4299-5-7"
       inkscape:connector-curvature="0" />
    <path
       style="fill:#ffffff;fill-rule:evenodd;stroke:#ffffff;stroke-width:2;stroke-linecap:butt;stroke-linejoin:miter;stroke-miterlimit:4;stroke-dasharray:none;stroke-opacity:1;fill-opacity:1"
       d="m 1334.3571,458.5 0,-12.14286"
       id="path4299-5-7-1"
       inkscape:connector-curvature="0" />
    <path
       style="fill:#ffffff;fill-rule:evenodd;stroke:#ffffff;stroke-width:2;stroke-linecap:butt;stroke-linejoin:miter;stroke-miterlimit:4;stroke-dasharray:none;stroke-opacity:1;fill-opacity:1"
       d="m 1426.5,430.28572 0,-30"
       id="path4299-5-7-4"
       inkscape:connector-curvature="0" />
    <path
       style="fill:#ffffff;fill-rule:evenodd;stroke:#ffffff;stroke-width:2;stroke-linecap:butt;stroke-linejoin:miter;stroke-miterlimit:4;stroke-dasharray:none;stroke-opacity:1;fill-opacity:1"
       d="m 1472.9733,440.28571 0,-9.64285"
       id="path4299-5-7-8"
       inkscape:connector-curvature="0" />
    <path
       style="fill:#ffffff;fill-rule:evenodd;stroke:#ffffff;stroke-width:2;stroke-linecap:butt;stroke-linejoin:miter;stroke-miterlimit:4;stroke-dasharray:none;stroke-opacity:1;fill-opacity:1"
       d="m 1259.7143,381.35714 0,-20.35714"
       id="path4299-5-7-16"
       inkscape:connector-curvature="0" />
    <path
       style="fill:#ffffff;fill-rule:evenodd;stroke:#ffffff;stroke-width:2;stroke-linecap:butt;stroke-linejoin:miter;stroke-miterlimit:4;stroke-dasharray:none;stroke-opacity:1;fill-opacity:1"
       d="m 1204,350.64286 0,-18.57142"
       id="path4299-5-7-10"
       inkscape:connector-curvature="0" />
    <path
       style="fill:#ffffff;fill-rule:evenodd;stroke:#ffffff;stroke-width:2;stroke-linecap:butt;stroke-linejoin:miter;stroke-miterlimit:4;stroke-dasharray:none;stroke-opacity:1;fill-opacity:1"
       d="m 1811.5,921.35715 0,-38.97371"
       id="path4299-5-7-5"
       inkscape:connector-curvature="0" />
    <path
       style="fill:#ffffff;fill-rule:evenodd;stroke:#ffffff;stroke-width:2;stroke-linecap:butt;stroke-linejoin:miter;stroke-miterlimit:4;stroke-dasharray:none;stroke-opacity:1;fill-opacity:1"
       d="m 1895.4286,944.32505 0,-24.03933"
       id="path4299-5-7-7"
       inkscape:connector-curvature="0" />
  </g>
</svg>
