<?xml version="1.0" encoding="UTF-8" standalone="no"?>
<!-- Created with Inkscape (http://www.inkscape.org/) -->

<svg
   xmlns:osb="http://www.openswatchbook.org/uri/2009/osb"
   xmlns:dc="http://purl.org/dc/elements/1.1/"
   xmlns:cc="http://creativecommons.org/ns#"
   xmlns:rdf="http://www.w3.org/1999/02/22-rdf-syntax-ns#"
   xmlns:svg="http://www.w3.org/2000/svg"
   xmlns="http://www.w3.org/2000/svg"
   xmlns:sodipodi="http://sodipodi.sourceforge.net/DTD/sodipodi-0.dtd"
   xmlns:inkscape="http://www.inkscape.org/namespaces/inkscape"
   viewBox="-221 -14 2403 1000"
   id="svg2"
   version="1.1"
   inkscape:version="0.91 r13725"
   sodipodi:docname="tst.svg">
  <defs
     id="defs4">
    <linearGradient
       inkscape:collect="always"
       id="linearGradient7252"
       osb:paint="gradient">
      <stop
         style="stop-color:#000000;stop-opacity:1;"
         offset="0"
         id="stop7254" />
      <stop
         style="stop-color:#000000;stop-opacity:0;"
         offset="1"
         id="stop7256" />
    </linearGradient>
    <linearGradient
       id="linearGradient7246"
       osb:paint="solid">
      <stop
         style="stop-color:#000000;stop-opacity:1;"
         offset="0"
         id="stop7248" />
    </linearGradient>
    <filter
       inkscape:collect="always"
       style="color-interpolation-filters:sRGB"
       id="filter7340"
       x="-0.1020469"
       width="1.2040938"
       y="-0.050093954"
       height="1.1001879">
      <feGaussianBlur
         inkscape:collect="always"
         stdDeviation="1.9015384"
         id="feGaussianBlur7342" />
    </filter>
  </defs>
  <sodipodi:namedview
     id="base"
     pagecolor="#ffffff"
     bordercolor="#666666"
     borderopacity="1.0"
     inkscape:pageopacity="0.0"
     inkscape:pageshadow="2"
     inkscape:zoom="3.959798"
     inkscape:cx="372.33331"
     inkscape:cy="247.40136"
     inkscape:document-units="px"
     inkscape:current-layer="layer1"
     showgrid="false"
     units="px"
     inkscape:window-width="1920"
     inkscape:window-height="1017"
     inkscape:window-x="-8"
     inkscape:window-y="-8"
     inkscape:window-maximized="1"
     showguides="false" />
  <metadata
     id="metadata7">
    <rdf:RDF>
      <cc:Work
         rdf:about="">
        <dc:format>image/svg+xml</dc:format>
        <dc:type
           rdf:resource="http://purl.org/dc/dcmitype/StillImage" />
        <dc:title />
      </cc:Work>
    </rdf:RDF>
  </metadata>
  <g
     inkscape:groupmode="layer"
     id="layer1"
     inkscape:label="line"
     style="display:inline">
    <path
       id="v_track_1"
       class="v_track"
       style=""
       d="m 33.800784,839.64441 c -2.4362,-1.8304 -2.37239,-1.9897 2.5,-6.2408 2.75,-2.3993 6.75434,-5.5939 8.898517,-7.099 2.14419,-1.5052 6.83897,-5.1301 10.43283,-8.0555 3.59386,-2.9254 7.8864,-5.5973 9.53897,-5.9375 1.65258,-0.3403 4.31953,-0.8877 5.92658,-1.2165 4.46811,-0.9142 9.13867,-5.1422 14.65695,-13.2682 4.3005,-6.3328 5.56329,-7.3839 8.87079,-7.3839 2.888382,0 3.556862,0.3922 2.662962,1.5625 -0.65642,0.8593 -4.353212,5.818 -8.215092,11.0192 -7.22955,9.7369 -11.21963,12.6214 -20.7287,14.9855 -3.00091,0.7461 -6.82773,2.7281 -8.50406,4.4044 -1.67632,1.6763 -6.25229,5.374 -10.1688,8.217 -3.91652,2.8431 -8.527197,6.4566 -10.245947,8.0302 -2.84529,2.6049 -3.34876,2.6928 -5.625,0.9826 z"
       inkscape:connector-curvature="0"
       sodipodi:nodetypes="sscscssscsssccs" />
    <path
       id="v_track_2"
       class="v_track"
       style="filter:url(#filter7340)"
       d="m 97.645053,785.59783 c -1.82485,-2.0165 -1.7475,-2.615 0.952066,-7.3677 4.018581,-7.0748 5.496141,-11.9588 6.828791,-22.572 0.93696,-7.4621 1.92344,-10.1017 5.6035,-14.994 11.15067,-14.8238 24.4915,-38.233 24.5098,-43.0075 0.006,-1.7582 0.47493,-1.8523 3.10992,-0.625 3.36157,1.5658 3.32814,2.848 -0.28203,10.8199 -3.18846,7.0407 -16.59175,29.0374 -20.22549,33.1929 -4.20681,4.8109 -5.6721,8.8239 -7.47664,20.4764 -1.26945,8.1972 -7.54868,24.1179 -10.14519,25.7226 -0.48868,0.302 -1.782311,-0.4385 -2.874727,-1.6456 z"
       inkscape:connector-curvature="0"
       sodipodi:nodetypes="csssccssscc" />
    <path
       id="v_track_3"
       class="v_track"
       style=""
       d="m 137.57656,686.31196 c 0.40919,-2.92187 0.93972,-5.96101 1.17896,-6.75362 0.23924,-0.79263 -0.40771,-4.16763 -1.43767,-7.5 -2.13968,-6.92284 -1.74799,-16.83476 0.87911,-22.24663 0.98457,-2.02826 5.89824,-7.01566 10.91924,-11.08311 10.87116,-8.80657 12.6841,-11.31726 12.94298,-17.92445 0.17978,-4.58795 0.45037,-4.95924 3.22727,-4.4284 3.98567,0.7619 4.54547,2.61181 2.77738,9.178 -1.4865,5.52041 -7.09271,11.85233 -18.36591,20.74326 -5.99319,4.72672 -8.40555,10.71414 -7.34119,18.22072 1.91277,13.48998 2.24312,18.57257 1.47372,22.6738 -0.68555,3.6543 -1.37317,4.43293 -3.91475,4.43293 -2.91059,0 -3.0415,-0.29731 -2.33914,-5.3125 z"
       inkscape:connector-curvature="0"
       sodipodi:nodetypes="sssssssssssss" />
    <path
       id="v_track_4"
       class="v_track"
       style=""
       d="m 162.75731,604.87254 c 0.24061,-3.32972 -0.30384,-7.85318 -1.20989,-10.05214 -1.40766,-3.4164 -19.63751,-25.15869 -33.22205,-39.62313 -2.25988,-2.40625 -4.11375,-4.89062 -4.11971,-5.52083 -0.006,-0.6302 0.35928,-0.77572 0.81165,-0.32334 0.45237,0.45236 1.57716,0.19616 2.49953,-0.56934 1.79122,-1.48657 6.96842,3.62929 27.2824,26.95923 11.2776,12.95195 14.33007,18.84731 14.36813,27.74991 0.0259,6.05642 -0.16754,6.44936 -3.41005,6.92715 -3.39411,0.50012 -3.43198,0.4301 -3.00001,-5.54751 z"
       inkscape:connector-curvature="0"
       sodipodi:nodetypes="sssccsssss" />
    <path
       id="v_track_5"
       class="v_track"
       style=""
       d="m 110.08743,537.89003 c -3.5655,-2.01225 -7.43492,-5.11185 -8.5987,-6.88801 -3.729167,-5.69142 -6.127987,-17.88184 -5.414697,-27.51651 0.98887,-13.35714 7.599947,-42.6792 9.525017,-42.24631 0.87164,0.19598 2.45046,-0.3621 3.50853,-1.2402 1.64296,-1.36355 1.8127,-1.23313 1.16297,0.89363 -0.41841,1.36962 -1.924,9.2402 -3.34575,17.4902 -1.42175,8.25 -3.10811,16.6875 -3.74747,18.75 -2.06914,6.67478 -2.13862,11.09377 -0.30463,19.375 2.30881,10.42533 4.30383,13.45082 10.74961,16.30209 2.88243,1.27504 6.55139,3.71333 8.15324,5.41843 9.84732,16.18006 -9.86095,0.70324 -11.68812,-0.33832 z"
       inkscape:connector-curvature="0"
       sodipodi:nodetypes="cssccssssscc" />
    <path
       id="v_track_6"
       class="v_track"
       style=""
       d="m 107.64341,454.75549 c -1.2032,-0.3144 -2.1875,-0.82972 -2.1875,-1.14514 0,-5.18277 16.2689,-26.2798 25.9888,-33.70153 5.2714,-4.02497 5.8109,-4.18163 7.8976,-2.29319 2.1232,1.92142 1.9182,2.28099 -3.9383,6.91029 -7.8441,6.20041 -19.6833,20.30153 -22.1684,26.40373 -1.0499,2.57813 -2.2455,4.62225 -2.6568,4.5425 -0.4114,-0.0797 -1.7323,-0.40225 -2.9354,-0.71666 z"
       inkscape:connector-curvature="0"
       sodipodi:nodetypes="csscsccc" />
    <path
       id="v_track_7"
       class="v_track"
       style=""
       d="m 144.39152,412.95451 c -1.7228,-1.89475 -1.32676,-2.54164 4.375,-7.14607 3.44811,-2.7845 8.06185,-6.31312 10.25278,-7.84135 4.00675,-2.79485 8.0394,-11.19999 9.75104,-20.32383 0.65433,-3.48792 1.36591,-4.27209 3.87665,-4.27209 2.7507,0 2.99582,0.39569 2.32298,3.75 -2.38903,11.91017 -4.82889,18.13568 -8.50291,21.69589 -4.37836,4.24276 -19.24031,16.48766 -19.81399,16.32495 -0.202,-0.0573 -1.21968,-1.04167 -2.26155,-2.1875 z"
       inkscape:connector-curvature="0"
       sodipodi:nodetypes="ssssssscs" />
    <path
       id="v_track_8"
       class="v_track"
       style=""
       d="m 173.81906,367.73017 c -4.06972,-2.99998 -0.41225,-10.25343 10.46831,-20.76057 8.04707,-7.77089 10.15605,-10.65439 12.25533,-16.75604 2.89812,-8.42356 8.92186,-17.24047 9.83634,-14.39741 0.31658,0.98426 1.17203,2.17711 1.90098,2.65076 0.87527,0.56873 0.63038,1.63 -0.72106,3.125 -1.12554,1.2451 -3.46972,6.20131 -5.2093,11.01381 -2.26921,6.27774 -4.5024,9.9356 -7.90386,12.94617 -11.2021,9.91473 -13.37221,12.36415 -15.86188,17.90323 -2.31466,5.14977 -2.88457,5.66109 -4.76486,4.27505 z"
       inkscape:connector-curvature="0"
       sodipodi:nodetypes="ssssssssss" />
    <path
       id="v_track_9"
       class="v_track"
       style=""
       d="m 212.00937,312.18108 c -1.39837,-1.58326 -1.06405,-2.54264 2.16944,-6.22537 4.95793,-5.64677 5.499,-8.1745 4.78543,-22.35623 -0.68523,-13.61864 1.05181,-19.18698 7.7413,-24.81581 8.23957,-6.93315 11.30236,-1.71546 3.2567,5.54804 l -5.04974,4.55883 0.31888,14.40555 c 0.34832,15.73647 -0.3718,18.81649 -6.08639,26.03173 -4.23174,5.34302 -4.75266,5.55131 -7.13561,2.85326 z"
       inkscape:connector-curvature="0"
       sodipodi:nodetypes="csssscsscc" />
    <path
       id="v_track_10"
       class="v_track"
       style=""
       d="m 254.34304,258.28847 c -2.76302,-1.2032 -6.0526,-1.61456 -9.0625,-1.13325 -3.71627,0.59425 -4.72501,0.35211 -4.72501,-1.13421 0,-1.03938 -0.5957,-1.88978 -1.32377,-1.88978 -0.72808,0 -0.99622,-0.53 -0.59587,-1.17777 1.57695,-2.55155 11.7186,-2.8956 18.06659,-0.61289 6.19384,2.22728 6.27027,2.22224 27.21966,-1.79099 20.60159,-3.94661 30.30973,-4.27497 28.19474,-0.95366 -0.49394,0.77568 -0.92173,1.97281 -0.95065,2.66031 -0.0289,0.6875 -1.37546,1.1032 -2.99233,0.92377 -1.61686,-0.17943 -11.94448,1.36745 -22.95026,3.4375 -22.4293,4.21868 -24.74261,4.34386 -30.8806,1.67097 z"
       inkscape:connector-curvature="0"
       sodipodi:nodetypes="sssssssscsss" />
    <path
       id="path17"
       class="v_track"
       style=""
       d="m 324.39596,258.11037 c -5.57435,-1.77056 -6.7934,-2.64292 -6.44366,-4.61114 0.23724,-1.3351 0.60862,-2.61133 0.82531,-2.8361 0.21669,-0.22476 3.8196,0.55253 8.00646,1.7273 5.55318,1.55814 10.31755,1.95864 17.61218,1.48049 9.75235,-0.63924 9.99971,-0.58534 9.99971,2.17895 0,2.17454 -0.9094,3.01629 -3.90625,3.61566 -6.98692,1.39739 -19.06426,0.67759 -26.09375,-1.55516 z"
       inkscape:connector-curvature="0"
       sodipodi:nodetypes="sscsssss" />
    <path
       id="v_track_11"
       class="v_track"
       style=""
       d="m 389.99835,268.09223 c -3.4375,-1.21813 -8.33853,-3.66359 -10.89116,-5.43438 -2.87598,-1.99508 -7.27359,-3.54851 -11.5625,-4.08437 -3.80674,-0.47563 -6.92134,-1.34079 -6.92134,-1.92259 0,-0.5818 -0.29395,-1.82384 -0.65323,-2.76009 -1.76431,-4.59773 14.36455,-1.47235 24.41478,4.73102 5.7319,3.53792 8.78751,4.52115 15.90496,5.11785 11.16241,0.93582 13.55595,0.29593 21.65425,-5.78902 6.06934,-4.5604 6.73564,-4.78845 8.25114,-2.82403 1.4375,1.86331 1.05021,2.67722 -3.02413,6.35533 -2.57002,2.3201 -6.92277,5.26088 -9.67277,6.53505 -6.47024,2.99792 -19.15434,3.03262 -27.5,0.0753 z"
       inkscape:connector-curvature="0"
       sodipodi:nodetypes="csssssssssscc" />
    <path
       id="v_track_12"
       class="v_track"
       style=""
       d="m 435.58091,251.7556 c -2.01281,-3.76098 -0.83265,-4.78915 14.85023,-12.93753 15.02398,-7.80605 21.01286,-13.30473 25.88315,-23.76465 1.64524,-3.53345 2.99683,-8.53382 3.00354,-11.11195 0.0113,-4.16341 0.3616,-4.6875 3.13721,-4.6875 2.89341,0 3.125,0.4387 3.125,5.91957 0,3.9767 -1.12774,8.14848 -3.43602,12.71073 -5.56363,10.9963 -12.41299,17.56003 -25.46808,24.406 -6.4465,3.38048 -13.5096,7.49193 -15.69579,9.13655 l -3.97489,2.99022 z"
       inkscape:connector-curvature="0"
       sodipodi:nodetypes="ssscssssscs" />
    <path
       id="v_track_13"
       class="v_track"
       style=""
       d="m 479.71433,188.3851 c 0.9925,-7.24105 3.38956,-11.65533 10.7317,-19.76277 3.33734,-3.68521 6.417,-7.80028 6.84366,-9.14461 0.57344,-1.80675 1.58363,-2.2898 3.87323,-1.85211 1.7036,0.32566 3.09745,0.95846 3.09745,1.40622 0,1.61284 -6.68476,10.87393 -11.41496,15.81432 -3.36509,3.51462 -5.29312,6.9935 -6.35625,11.46908 -1.23843,5.21344 -2.09173,6.53237 -4.52749,6.99799 -2.88589,0.55166 -2.97241,0.3619 -2.24734,-4.92812 z"
       inkscape:connector-curvature="0"
       sodipodi:nodetypes="sssssssss" />
    <path
       id="v_track_14"
       class="v_track"
       style=""
       d="m 505.73569,153.07032 c -0.008,-0.85937 -0.85761,-1.5625 -1.88886,-1.5625 -2.47966,0 -2.36996,-0.79396 0.70669,-5.11471 4.41932,-6.20637 12.33441,-9.93407 22.63911,-10.66215 13.70889,-0.9686 18.90205,-3.22456 22.3397,-9.7046 2.33025,-4.39255 3.48036,-5.36589 6.2224,-5.26604 3.05206,0.11113 3.26063,0.41914 2.25059,3.32354 -1.60584,4.61766 -8.14969,12.16129 -12.50184,14.41188 -2.05884,1.06466 -8.78204,2.45706 -14.94044,3.0942 -12.66932,1.31075 -16.9749,3.09652 -21.59236,8.95561 -1.77163,2.248 -3.22736,3.38415 -3.23499,2.52477 z"
       inkscape:connector-curvature="0"
       sodipodi:nodetypes="csssssssssc" />
    <path
       id="v_track_15"
       class="v_track"
       style=""
       d="m 557.22558,114.79907 c -2.42241,-1.23321 -2.51327,-1.73315 -1.14759,-6.31461 3.73193,-12.519423 9.29037,-19.338023 18.62087,-22.842403 12.06271,-4.53056 15.34523,-5.25796 23.72764,-5.25796 7.58836,0 8.28491,0.20966 7.26767,2.1875 -0.61879,1.20313 -0.87295,2.89063 -0.56482,3.75 0.41584,1.15973 -1.82472,1.5625 -8.69203,1.5625 -19.09055,0 -28.90894,5.83211 -33.77883,20.064593 -2.60241,7.60569 -2.98977,8.09411 -5.43291,6.85038 z"
       inkscape:connector-curvature="0"
       sodipodi:nodetypes="ssssscsss" />
    <path
       id="v_track_16"
       class="v_track"
       style=""
       d="m 630.81765,93.42627 c -3.4375,-1.611411 -9.14278,-3.560691 -12.6784,-4.331751 -5.30351,-1.1566 -6.53045,-1.93578 -7.0116,-4.45278 -0.55833,-2.92064 -0.36398,-3.01997 4.55339,-2.32728 6.58872,0.92814 12.42717,2.72708 19.49498,6.0068 5.10024,2.36669 5.52322,2.88781 4.40772,5.430411 -1.46049,3.32894 -0.92839,3.34869 -8.76609,-0.3254 z"
       inkscape:connector-curvature="0"
       sodipodi:nodetypes="sssssss" />
    <path
       id="v_track_17"
       class="v_track"
       style=""
       d="m 658.96754,104.52899 c -14.9028,-5.531647 -15.2085,-5.721367 -13.8883,-8.618907 1.2412,-2.72395 1.613,-2.82893 4.6132,-1.30251 6.1783,3.1433 26.352,9.473767 30.1907,9.473767 2.3527,0 3.5322,0.50642 3.0388,1.30476 -0.4435,0.71761 -0.1266,2.12386 0.7043,3.125 3.14642,3.79126 -9.0019,1.82944 -24.6587,-3.98211 z"
       inkscape:connector-curvature="0"
       sodipodi:nodetypes="scssscs" />
    <path
       id="v_track_18"
       class="v_track"
       style=""
       d="m 712.9205,113.49448 c -7.90625,-2.27636 -16.20313,-4.18048 -18.4375,-4.23139 -2.23438,-0.0509 -4.0625,-0.60904 -4.0625,-1.24031 0,-0.63127 -0.34143,-2.03752 -0.75874,-3.125 -1.15269,-3.00385 7.18495,-2.56603 19.6814,1.03349 5.74879,1.65589 12.83504,3.64419 15.74724,4.41844 4.53843,1.2066 5.25846,1.84798 5.03986,4.48927 -0.30666,3.70534 0.56619,3.77352 -17.20976,-1.3445 z"
       inkscape:connector-curvature="0"
       sodipodi:nodetypes="ssssssss" />
    <path
       id="v_track_19"
       class="v_track"
       style=""
       d="m 812.717,164.87175 c -1.86767,-2.34069 -8.89892,-8.38127 -15.625,-13.42354 -14.33318,-10.74498 -18.25489,-14.68805 -22.19958,-22.32045 -6.14727,-11.89407 -9.20879,-13.01012 -29.56925,-10.77925 l -9.53958,1.04525 0.60643,-3.17236 c 0.55363,-2.89608 1.32998,-3.25305 8.91459,-4.0989 22.27109,-2.48372 24.97697,-1.4334 33.75086,13.10074 4.23849,7.02115 7.54114,10.59391 14.92695,16.14775 10.34225,7.77697 26.50534,22.54147 26.50534,24.21185 0,0.57471 -0.79688,1.04492 -1.77084,1.04492 -0.97395,0 -1.95832,0.56245 -2.1875,1.2499 -0.22916,0.68744 -1.94475,-0.66522 -3.81242,-3.00591 z"
       inkscape:connector-curvature="0"
       sodipodi:nodetypes="sssscsssssscs" />
    <path
       id="v_track_20"
       class="v_track"
       style=""
       d="m 850.74178,264.06846 c -5.22052,-8.55696 -6.30902,-14.5719 -5.95542,-32.90904 0.3893,-20.1859 0.1502,-20.88077 -12.6609,-36.79445 -7.0947,-8.81305 -15.6431,-22.48835 -13.0591,-20.8913 0.6464,0.39949 1.9414,0.25283 2.8779,-0.32591 1.2345,-0.763 2.9652,0.89179 6.2959,6.01999 2.5263,3.88972 7.1317,10.03162 10.2342,13.64866 3.1024,3.61704 7.2726,9.52329 9.26702,13.125 3.5635,6.43549 3.6262,6.8831 3.6285,25.92356 0,18.29289 0.1854,19.76525 3.2791,26.36225 3.161,6.74054 3.1938,7.03904 0.9288,8.4535 -2.0284,1.26678 -2.6863,0.9114 -4.836,-2.61226 z"
       inkscape:connector-curvature="0"
       sodipodi:nodetypes="sssccscccscs" />
    <path
       id="v_track_21"
       class="v_track"
       style=""
       d="m 888.53689,318.73008 c -4.85892,-6.63193 -29.1304,-41.29921 -31.31169,-44.72291 -1.88806,-2.96346 -1.86245,-3.25477 0.41092,-4.67451 2.17375,-1.35754 2.94088,-0.77221 7.41872,5.66041 2.74685,3.94599 10.92009,15.51725 18.16275,25.71394 7.24268,10.19669 13.16844,18.99589 13.16844,19.55377 0,0.85809 -2.9177,2.5318 -4.41357,2.5318 -0.25253,0 -1.79854,-1.82812 -3.43557,-4.0625 z"
       inkscape:connector-curvature="0"
       sodipodi:nodetypes="ssssssss" />
    <path
       id="v_track_22"
       class="v_track"
       style=""
       d="m 991.78243,389.13874 c -7.9062,-3.96661 -18.2089,-9.34722 -22.8949,-11.95692 -6.2813,-3.49818 -10.8385,-5.03603 -17.3441,-5.8529 -8.0815,-1.01475 -9.942,-1.86051 -22.1051,-10.04876 -14.5571,-9.79995 -23.4095,-17.641 -29.0375,-25.72033 -3.6445,-5.23186 -3.6494,-5.26356 -1.0331,-6.66377 1.4459,-0.7738 2.7708,-1.22072 2.9442,-0.99314 0.1735,0.22757 2.0966,3.05007 4.2736,6.27224 4.5778,6.77533 10.0033,11.36196 26.2895,22.22431 10.3885,6.9288 12.6912,7.9375 20.3016,8.89309 7.037,0.88358 11.1206,2.46771 22.6575,8.78935 7.7403,4.24132 18.5733,9.74173 24.07329,12.22313 9.35348,4.22002 9.92018,4.69345 8.76598,7.32415 -0.6786,1.54688 -1.5224,2.79204 -1.875,2.76703 -0.3526,-0.025 -7.10968,-3.29088 -15.01597,-7.25748 z"
       inkscape:connector-curvature="0"
       sodipodi:nodetypes="ssssscccssssccs" />
    <path
       id="v_track_23"
       class="v_track"
       style=""
       d="m 1018.4495,399.93992 c -4.1297,-1.12715 -5.0297,-1.83394 -4.145,-3.25509 0.6215,-0.99842 0.7979,-2.35266 0.392,-3.00941 -0.4397,-0.71148 0.4777,-0.86163 2.27,-0.37151 10.2906,2.81411 12.2098,2.56886 24.0204,-3.06954 l 11.4876,-5.48423 20.8414,-0.0527 c 20.7533,-0.0525 20.8438,-0.0406 21.3893,2.8125 0.6552,3.4282 1.5517,3.29459 -22.8557,3.40687 l -18.125,0.0834 -11.0575,5.3125 c -11.5471,5.54768 -15.1852,6.0926 -24.2175,3.62728 z"
       inkscape:connector-curvature="0"
       sodipodi:nodetypes="cccsscscscscc" />
    <path
       id="v_track_24"
       class="v_track"
       style=""
       d="m 1100.8361,386.98355 c 0.315,-2.62108 1.4396,-3.50397 6.2377,-4.89657 5.866,-1.70261 7.4298,-3.15942 14.8002,-13.78906 4.741,-6.83736 8.682,-7.86749 30.1328,-7.87626 15.7947,-0.006 17.5672,-0.24995 24.3174,-3.34031 8.7534,-4.00744 13.0144,-4.1572 20.7453,-0.72912 4.8311,2.1423 5.7302,3.04774 5.1666,5.20305 -0.8198,3.13477 -1.8266,3.22392 -6.8825,0.6094 -5.5129,-2.85085 -10.8961,-2.48237 -18.2616,1.25 -6.0153,3.04819 -7.561,3.25545 -24.8927,3.33787 -10.1633,0.0484 -19.604,0.52642 -20.979,1.06245 -1.375,0.53603 -4.75,4.26471 -7.5,8.28596 -5.477,8.00882 -9.6853,11.03835 -17.8842,12.87445 -5.3065,1.18836 -5.3788,1.15959 -5,-1.99186 z"
       inkscape:connector-curvature="0"
       sodipodi:nodetypes="csscsccssssssc" />
    <path
       id="v_track_25"
       class="v_track"
       style=""
       d="m 1240.7595,389.81139 c -13.638,-5.86319 -16.3188,-7.52743 -21.9499,-13.62656 -3.5281,-3.82122 -6.9434,-6.95628 -7.5897,-6.9668 -0.6464,-0.01 -1.9364,-0.5015 -2.8667,-1.09104 -2.552,-1.6171 0.383,-6.55836 3.2732,-5.5106 3.6892,1.33749 10.9196,7.49467 12.6937,10.80959 1.2291,2.29677 6.0624,5.10088 17.769,10.30908 8.8444,3.93479 16.0411,7.48557 15.9928,7.89063 -0.6029,5.05412 -1.5857,4.95119 -17.3224,-1.8143 z"
       inkscape:connector-curvature="0"
       sodipodi:nodetypes="scccccscs" />
    <path
       id="v_track_26"
       class="v_track"
       style=""
       d="m 1327.6036,430.98943 c -7.0145,-3.65981 -18.2426,-7.28405 -26.0441,-8.40664 -10.7795,-1.5511 -17.9836,-5.20977 -22.1879,-11.26831 -2.1854,-3.14928 -6.0942,-6.32276 -10.7237,-8.70631 -6.4582,-3.32504 -7.1012,-3.9913 -5.6662,-5.87105 0.8903,-1.1662 1.7219,-2.2988 1.848,-2.5169 0.1262,-0.2181 3.0207,1.01787 6.4322,2.74662 3.4566,1.7516 8.5302,5.92303 11.4597,9.42211 5.6405,6.7369 7.858,7.70485 27.5861,12.04138 5.1563,1.13342 12.8805,3.71605 17.165,5.73917 7.1287,3.36618 7.6602,3.88613 6.2618,6.12534 -1.8163,2.90825 -1.8753,2.91494 -6.1309,0.69459 z"
       inkscape:connector-curvature="0"
       sodipodi:nodetypes="ssssccscsscs" />
    <path
       id="v_track_27"
       class="v_track"
       style=""
       d="m 1402.3564,452.06073 c -14.8942,-3.88154 -34.2906,-7.79624 -41.8375,-8.44389 -5.6645,-0.48611 -11.8758,-1.96337 -15.7903,-3.75546 -5.7407,-2.62818 -6.3849,-3.30875 -5.8384,-6.16759 l 0.6142,-3.21344 6.0415,3.06147 c 3.9632,2.00825 9.184,3.32296 15.176,3.8216 5.024,0.41808 17.572,2.73691 27.8845,5.15295 16.6167,3.89298 19.5323,4.25067 25.625,3.14376 3.7813,-0.68696 6.9458,-1.17073 7.0323,-1.07503 0.086,0.0958 0.5255,1.37434 0.9756,2.84142 0.6409,2.08865 0.2,2.81932 -2.0322,3.3676 -4.9397,1.21332 -15.2484,1.94478 -17.8507,1.26661 z"
       inkscape:connector-curvature="0"
       sodipodi:nodetypes="ssscccsssccss" />
    <path
       id="v_track_28"
       class="v_track"
       style=""
       d="m 1461.4014,452.86388 c -3.9081,-1.2284 -9.1544,-3.49959 -11.6582,-5.04709 -3.9075,-2.41491 -5.7648,-2.72688 -13.1067,-2.20158 -7.6602,0.54808 -8.6193,0.36185 -9.1801,-1.7825 -1.5432,-5.9015 13.9928,-6.51215 25.6259,-1.00724 4.3586,2.06254 9.7866,4.10021 12.0622,4.52817 3.0057,0.56525 3.94,1.29244 3.4159,2.65837 -0.3969,1.03413 -0.08,2.65271 0.7031,3.59682 1.7599,2.12053 1.036,2.05193 -7.8621,-0.74495 z"
       inkscape:connector-curvature="0"
       sodipodi:nodetypes="scscssccs" />
    <path
       id="v_track_29"
       class="v_track"
       style=""
       d="m 1547.5829,500.62663 c -1.833,-0.4185 -2.0765,-1.30222 -1.3809,-5.01012 2.1707,-11.57089 1.6818,-12.51933 -14.7218,-28.56299 -17.3814,-16.9998 -18.979,-17.45235 -38.5467,-10.91842 -7.1677,2.39341 -19.3477,1.29196 -18.2196,-1.64763 0.3958,-1.0315 0.7196,-2.45582 0.7196,-3.16515 0,-0.80876 1.9812,-0.993 5.3125,-0.49406 3.877,0.58064 8.1585,-0.0565 15.8453,-2.35808 5.793,-1.73453 11.7295,-3.1537 13.1921,-3.1537 5.9768,0 15.5304,6.5158 27.226,18.56863 14.9091,15.36466 16.4835,18.23654 15.4449,28.17396 -0.856,8.19035 -1.5073,9.33564 -4.8714,8.56756 z"
       inkscape:connector-curvature="0"
       sodipodi:nodetypes="sssscsssssss" />
    <path
       id="v_track_30"
       class="v_track"
       style=""
       d="m 1559.3819,626.6341 c 0.014,-5.84375 0.8394,-16.25 1.8354,-23.125 2.311,-15.95043 2.3457,-24.6153 0.12,-29.94177 -1.9984,-4.78266 -7.4118,-10.80448 -11.778,-13.10165 -4.6734,-2.45878 -12.6949,-10.19224 -14.8057,-14.2739 -3.8848,-7.51263 -2.3857,-16.58366 5.735,-34.70004 2.2035,-4.91585 3.0249,-5.68332 5.5628,-5.19816 l 2.9776,0.56919 -4.3206,10.82317 c -6.3476,15.90124 -6.7308,17.57426 -5.2676,23.00766 1.4702,5.46037 3.104,7.33007 12.5782,14.39465 13.5722,10.12047 17.3173,16.44129 17.371,29.3182 0.051,12.16513 2.6094,16.47578 13.0923,22.05807 6.2584,3.33266 8.75,5.35501 8.75,7.10202 0,2.56061 -0.4333,2.6086 -9.6841,1.07259 -10.5185,-1.74649 -15.928,3.59806 -15.9363,15.74497 0,6.49875 -0.1756,6.875 -3.1295,6.875 -3.0901,0 -3.1248,-0.1185 -3.1008,-10.625 z m 12.4756,-18.85695 c 0,-0.41557 -1.125,-1.77368 -2.5,-3.01805 -2.4567,-2.22335 -2.5,-2.18328 -2.5,2.31687 0,4.26641 0.1709,4.47263 2.5,3.01805 1.375,-0.8587 2.5,-1.90129 2.5,-2.31687 z"
       inkscape:connector-curvature="0"
       sodipodi:nodetypes="cccscsscscscssscsccsssss" />
    <path
       id="v_track_31"
       class="v_track"
       style=""
       d="m 1586.3041,745.7856 c -9.3935,-15.02586 -16.8704,-28.82879 -18.11,-33.43224 -0.9555,-3.54861 -0.9934,-8.95996 -0.1267,-18.10736 1.2855,-13.56783 0.617,-17.85948 -5.3378,-34.26768 -0.998,-2.75 -2.2017,-7.61397 -2.6747,-10.80883 -0.836,-5.6457 -0.7707,-5.80367 2.3214,-5.625 2.1395,0.12362 3.1816,0.90776 3.1823,2.39445 5e-4,1.21583 2.0813,8.52833 4.6243,16.25 4.2779,12.99011 4.5888,14.9269 4.1597,25.91438 -0.9867,25.26113 -1.5837,22.71244 9.9182,42.34189 5.7149,9.75304 10.173,17.87515 9.9071,18.04916 -0.2658,0.174 -1.3272,0.94235 -2.3585,1.70744 -1.5273,1.13315 -2.5481,0.31438 -5.5053,-4.41621 z"
       inkscape:connector-curvature="0"
       sodipodi:nodetypes="ccsscsccssccc" />
    <path
       id="v_track_32"
       class="v_track"
       style=""
       d="m 1601.5172,836.88492 c -0.8547,-2.5442 -1.5922,-7.43832 -1.639,-10.87582 -0.076,-5.63398 0.6234,-7.27373 7.1025,-16.63672 3.9532,-5.7127 7.1875,-11.49639 7.1875,-12.85265 0,-3.80054 -2.6323,-9.2411 -12.2018,-25.21813 -8.1077,-13.53656 -8.6235,-14.80682 -6.4782,-15.95495 2.5095,-1.34305 3.7108,0.2244 17.539,22.88524 9.1283,14.95875 9.1318,21.73485 0.017,33.24334 -2.0128,2.54135 -4.6488,6.6951 -5.858,9.23057 -2.0243,4.24525 -2.0486,5.14778 -0.306,11.40864 1.8692,6.71551 1.8575,6.8146 -0.9582,8.0975 -2.5928,1.18134 -2.991,0.88048 -4.4046,-3.32702 z"
       inkscape:connector-curvature="0"
       sodipodi:nodetypes="ccsssssscsscc" />
    <path
       id="v_track_33"
       class="v_track"
       style=""
       d="m 1688.1051,913.33603 c -13.1191,-5.5953 -13.1301,-5.5975 -24.6992,-4.9032 -13.3198,0.7994 -16.1489,-0.162 -22.8948,-7.7805 -5.8946,-6.6572 -16.069,-20.9301 -20.275,-28.4426 -1.9217,-3.4323 -4.8447,-7.6511 -6.4955,-9.375 -2.8166,-2.9413 -8.8402,-14.782 -7.9275,-15.5829 0.2294,-0.2012 1.5702,-0.7192 2.9794,-1.151 2.1293,-0.6524 3.0308,0.2194 5.3336,5.1572 1.5243,3.2683 5.2767,9.5986 8.3388,14.0674 27.4801,40.104 24.8037,37.7209 41.2015,36.6868 11.3057,-0.7129 11.3239,-0.7093 25.6887,5.1885 7.9063,3.2461 14.4934,6.0048 14.6379,6.1304 0.5829,0.5063 -1.2352,5.7393 -1.9711,5.6735 -0.4355,-0.039 -6.698,-2.5898 -13.9168,-5.6686 z"
       inkscape:connector-curvature="0"
       sodipodi:nodetypes="ssscscccsssccs" />
    <path
       id="v_track_34"
       class="v_track"
       style=""
       d="m 1730.8875,935.86511 c -2.3523,-0.808 -6.0347,-3.1198 -8.183,-5.1374 -2.1483,-2.0176 -6.2441,-5.0257 -9.1018,-6.6847 -4.7642,-2.7658 -5.0715,-3.2486 -3.7,-5.8114 l 1.4958,-2.795 5.575,3.7035 c 3.0663,2.037 8.0223,5.5577 11.0134,7.8238 l 5.4385,4.1202 21.921,-0.4314 c 12.0565,-0.2372 29.4255,-0.029 38.5978,0.4619 16.0643,0.8604 16.6685,0.9921 16.4536,3.5875 l -0.223,2.6944 -37.5051,-0.031 c -25.3944,-0.021 -38.8863,-0.5056 -41.7822,-1.5002 z"
       inkscape:connector-curvature="0"
       sodipodi:nodetypes="cssscsscscccscc" />
    <path
       id="v_track_35"
       class="v_track"
       style=""
       d="m 1817.3821,939.56816 c -0.7594,-0.3134 -1.1267,-1.8994 -0.816,-3.5244 0.5258,-2.7507 1.225,-2.985 10.1308,-3.395 8.0613,-0.3711 10.2553,-0.9676 13.9477,-3.7919 4.2582,-3.2571 20.2452,-11.02138 22.6935,-11.02138 0.6693,0 6.3826,-2.45506 12.696,-5.45568 15.3811,-7.31034 15.0761,-7.24145 16.7121,-3.77487 1.0839,2.29679 1.05,2.98055 -0.1476,2.98055 -0.8548,0 -6.0959,2.28052 -11.647,5.06782 -5.551,2.7873 -14.7448,6.71286 -20.4307,8.72356 -5.6857,2.0106 -12.3972,5.3107 -14.9142,7.3334 -2.517,2.0228 -6.7021,4.5659 -9.3003,5.6515 -4.3573,1.8206 -15.6863,2.5429 -18.9243,1.2064 z"
       inkscape:connector-curvature="0"
       sodipodi:nodetypes="ccsssscssscsc" />
    <path
       id="v_track_36"
       class="v_track"
       style=""
       d="m 1898.8607,906.63931 c -0.5548,-2.12097 0.3301,-3.01637 4.9288,-4.9876 3.0828,-1.32141 9.5124,-5.92376 14.2883,-10.22745 9.5992,-8.6502 17.5447,-13.36102 22.6261,-13.41468 1.8336,-0.0194 5.8338,1.03635 8.8891,2.34603 4.8744,2.08939 5.5382,2.83905 5.4162,6.11618 l -0.1392,3.73492 -5.1098,-2.99117 c -9.2667,-5.42448 -14.2695,-3.59875 -30.4839,11.12442 -5.875,5.3347 -15.4296,10.8844 -18.7391,10.8844 -0.5503,0 -1.3048,-1.16327 -1.6765,-2.58505 z"
       inkscape:connector-curvature="0"
       sodipodi:nodetypes="scsscsccsss" />
  </g>
  <g
     inkscape:groupmode="layer"
     id="layer4"
     inkscape:label="point"
     style="display:inline">
    <circle
       style="opacity:1;fill:#c639ff;fill-opacity:1;stroke:none;stroke-width:1;stroke-miterlimit:4;stroke-dasharray:none;stroke-opacity:1"
       id="v_station_1"
       cx="36.792328"
       cy="837.02087"
       r="7.282249" />
    <circle
       style="opacity:1;fill:#c639ff;fill-opacity:1;stroke:none;stroke-width:1;stroke-miterlimit:4;stroke-dasharray:none;stroke-opacity:1"
       id="v_station_2"
       cx="96.71933"
       cy="787.55945"
       r="7.282249" />
    <circle
       style="opacity:1;fill:#c639ff;fill-opacity:1;stroke:none;stroke-width:1;stroke-miterlimit:4;stroke-dasharray:none;stroke-opacity:1"
       id="v_station_3"
       cx="139.97696"
       cy="692.93457"
       r="7.282249" />
    <circle
       style="opacity:1;fill:#c639ff;fill-opacity:1;stroke:none;stroke-width:1;stroke-miterlimit:4;stroke-dasharray:none;stroke-opacity:1"
       id="v_station_4"
       cx="165.6479"
       cy="612.91656"
       r="7.282249" />
    <circle
       style="opacity:1;fill:#c639ff;fill-opacity:1;stroke:none;stroke-width:1;stroke-miterlimit:4;stroke-dasharray:none;stroke-opacity:1"
       id="v_station_5"
       cx="123.8622"
       cy="545.05945"
       r="7.282249" />
    <circle
       style="opacity:1;fill:#c639ff;fill-opacity:1;stroke:none;stroke-width:1;stroke-miterlimit:4;stroke-dasharray:none;stroke-opacity:1"
       id="v_station_6"
       cx="107.43362"
       cy="456.84515"
       r="7.282249" />
    <circle
       style="opacity:1;fill:#c639ff;fill-opacity:1;stroke:none;stroke-width:1;stroke-miterlimit:4;stroke-dasharray:none;stroke-opacity:1"
       id="v_station_7"
       cx="141.00507"
       cy="415.41663"
       r="7.282249" />
    <circle
       style="opacity:1;fill:#c639ff;fill-opacity:1;stroke:none;stroke-width:1;stroke-miterlimit:4;stroke-dasharray:none;stroke-opacity:1"
       id="v_station_8"
       cx="173.1479"
       cy="370.4166"
       r="7.282249" />
    <circle
       style="opacity:1;fill:#c639ff;fill-opacity:1;stroke:none;stroke-width:1;stroke-miterlimit:4;stroke-dasharray:none;stroke-opacity:1"
       id="v_station_9"
       cx="210.29076"
       cy="314.70233"
       r="7.282249" />
    <circle
       style="opacity:1;fill:#c639ff;fill-opacity:1;stroke:none;stroke-width:1;stroke-miterlimit:4;stroke-dasharray:none;stroke-opacity:1"
       id="v_station_10"
       cx="236.71935"
       cy="255.77374"
       r="7.282249" />
    <circle
       style="opacity:1;fill:#c639ff;fill-opacity:1;stroke:none;stroke-width:1;stroke-miterlimit:4;stroke-dasharray:none;stroke-opacity:1"
       id="v_station_11"
       cx="313.14795"
       cy="251.48804"
       r="7.282249" />
    <circle
       style="opacity:1;fill:#c639ff;fill-opacity:1;stroke:none;stroke-width:1;stroke-miterlimit:4;stroke-dasharray:none;stroke-opacity:1"
       id="v_station_12"
       cx="357.43362"
       cy="255.4166"
       r="7.282249" />
    <circle
       style="opacity:1;fill:#c639ff;fill-opacity:1;stroke:none;stroke-width:1;stroke-miterlimit:4;stroke-dasharray:none;stroke-opacity:1"
       id="v_station_13"
       cx="433.14789"
       cy="252.91663"
       r="7.282249" />
    <circle
       style="opacity:1;fill:#c639ff;fill-opacity:1;stroke:#62d5bb;stroke-width:2.5;stroke-miterlimit:4;stroke-dasharray:none;stroke-opacity:1"
       id="v_station_14"
       cx="482.07648"
       cy="195.05948"
       r="7.282249" />
    <circle
       style="opacity:1;fill:#c639ff;fill-opacity:1;stroke:none;stroke-width:1;stroke-miterlimit:4;stroke-dasharray:none;stroke-opacity:1"
       id="v_station_15"
       cx="503.14795"
       cy="155.05946"
       r="7.282249" />
    <circle
       style="opacity:1;fill:#c639ff;fill-opacity:1;stroke:none;stroke-width:1;stroke-miterlimit:4;stroke-dasharray:none;stroke-opacity:1"
       id="v_station_16"
       cx="556.71936"
       cy="117.91661"
       r="7.282249" />
    <circle
       style="opacity:1;fill:#c639ff;fill-opacity:1;stroke:none;stroke-width:1;stroke-miterlimit:4;stroke-dasharray:none;stroke-opacity:1"
       id="v_station_17"
       cx="609.21936"
       cy="84.702339"
       r="7.282249" />
    <circle
       style="opacity:1;fill:#c639ff;fill-opacity:1;stroke:none;stroke-width:1;stroke-miterlimit:4;stroke-dasharray:none;stroke-opacity:1"
       id="v_station_18"
       cx="641.71936"
       cy="94.702332"
       r="7.282249" />
    <circle
       style="opacity:1;fill:#c639ff;fill-opacity:1;stroke:none;stroke-width:1;stroke-miterlimit:4;stroke-dasharray:none;stroke-opacity:1"
       id="v_station_19"
       cx="687.43365"
       cy="106.84518"
       r="7.282249" />
    <circle
       style="opacity:1;fill:#c639ff;fill-opacity:1;stroke:none;stroke-width:1;stroke-miterlimit:4;stroke-dasharray:none;stroke-opacity:1"
       id="v_station_20"
       cx="733.14795"
       cy="115.41661"
       r="7.282249" />
    <circle
       style="opacity:1;fill:#c639ff;fill-opacity:1;stroke:none;stroke-width:1;stroke-miterlimit:4;stroke-dasharray:none;stroke-opacity:1"
       id="v_station_21"
       cx="819.2337"
       cy="169.14952"
       r="7.282249" />
    <circle
       style="opacity:1;fill:#c639ff;fill-opacity:1;stroke:none;stroke-width:1;stroke-miterlimit:4;stroke-dasharray:none;stroke-opacity:1"
       id="v_station_22"
       cx="856.60938"
       cy="268.14447"
       r="7.282249" />
    <circle
       style="opacity:1;fill:#c639ff;fill-opacity:1;stroke:none;stroke-width:1;stroke-miterlimit:4;stroke-dasharray:none;stroke-opacity:1"
       id="v_station_23"
       cx="896.00537"
       cy="325.72314"
       r="7.282249" />
    <circle
       style="opacity:1;fill:#c639ff;fill-opacity:1;stroke:none;stroke-width:1;stroke-miterlimit:4;stroke-dasharray:none;stroke-opacity:1"
       id="v_station_24"
       cx="1011.1628"
       cy="394.91864"
       r="7.282249" />
    <circle
       style="opacity:1;fill:#c639ff;fill-opacity:1;stroke:none;stroke-width:1;stroke-miterlimit:4;stroke-dasharray:none;stroke-opacity:1"
       id="v_station_25"
       cx="1097.0256"
       cy="386.8374"
       r="7.282249" />
    <circle
       style="opacity:1;fill:#c639ff;fill-opacity:1;stroke:none;stroke-width:1;stroke-miterlimit:4;stroke-dasharray:none;stroke-opacity:1"
       id="v_station_26"
       cx="1204.1018"
       cy="363.60388"
       r="7.282249" />
    <circle
       style="opacity:1;fill:#c639ff;fill-opacity:1;stroke:none;stroke-width:1;stroke-miterlimit:4;stroke-dasharray:none;stroke-opacity:1"
       id="v_station_27"
       cx="1259.6602"
       cy="394.41354"
       r="7.282249" />
    <circle
       style="opacity:1;fill:#c639ff;fill-opacity:1;stroke:none;stroke-width:1;stroke-miterlimit:4;stroke-dasharray:none;stroke-opacity:1"
       id="v_station_28"
       cx="1334.9165"
       cy="431.28412"
       r="7.282249" />
    <circle
       style="opacity:1;fill:#c639ff;fill-opacity:1;stroke:none;stroke-width:1;stroke-miterlimit:4;stroke-dasharray:none;stroke-opacity:1"
       id="v_station_29"
       cx="1426.8405"
       cy="444.92117"
       r="7.282249" />
    <circle
       style="opacity:1;fill:#c639ff;fill-opacity:1;stroke:none;stroke-width:1;stroke-miterlimit:4;stroke-dasharray:none;stroke-opacity:1"
       id="v_station_30"
       cx="1473.3075"
       cy="453.00238"
       r="7.282249" />
    <circle
       style="opacity:1;fill:#c639ff;fill-opacity:1;stroke:none;stroke-width:1;stroke-miterlimit:4;stroke-dasharray:none;stroke-opacity:1"
       id="v_station_31"
       cx="1546.5435"
       cy="503.00491"
       r="7.282249" />
    <circle
       style="opacity:1;fill:#c639ff;fill-opacity:1;stroke:none;stroke-width:1;stroke-miterlimit:4;stroke-dasharray:none;stroke-opacity:1"
       id="v_station_32"
       cx="1561.1907"
       cy="637.86029"
       r="7.282249" />
    <circle
       style="opacity:1;fill:#c639ff;fill-opacity:1;stroke:none;stroke-width:1;stroke-miterlimit:4;stroke-dasharray:none;stroke-opacity:1"
       id="v_station_33"
       cx="1593.5156"
       cy="752.00751"
       r="7.282249" />
    <circle
       style="opacity:1;fill:#c639ff;fill-opacity:1;stroke:none;stroke-width:1;stroke-miterlimit:4;stroke-dasharray:none;stroke-opacity:1"
       id="v_station_34"
       cx="1607.1527"
       cy="842.92126"
       r="7.282249" />
    <circle
       style="opacity:1;fill:#c639ff;fill-opacity:1;stroke:none;stroke-width:1;stroke-miterlimit:4;stroke-dasharray:none;stroke-opacity:1"
       id="v_station_35"
       cx="1706.6527"
       cy="917.67255"
       r="7.282249" />
    <circle
       style="opacity:1;fill:#c639ff;fill-opacity:1;stroke:none;stroke-width:1;stroke-miterlimit:4;stroke-dasharray:none;stroke-opacity:1"
       id="v_station_36"
       cx="1811.7086"
       cy="935.35022"
       r="7.282249" />
    <circle
       style="opacity:1;fill:#c639ff;fill-opacity:1;stroke:none;stroke-width:1;stroke-miterlimit:4;stroke-dasharray:none;stroke-opacity:1"
       id="v_station_37"
       cx="1895.5511"
       cy="907.57098"
       r="7.282249" />
    <circle
       style="opacity:1;fill:#c639ff;fill-opacity:1;stroke:none;stroke-width:1;stroke-miterlimit:4;stroke-dasharray:none;stroke-opacity:1"
       id="v_station_38"
       cx="1956.6654"
       cy="886.35785"
       r="7.282249" />
    <rect
       style="opacity:1;fill:#99cc33;fill-opacity:1;stroke:none;stroke-width:1;stroke-miterlimit:4;stroke-dasharray:none;stroke-opacity:1"
       id="rect4192"
       width="15.880999"
       height="15.880999"
       x="729.70996"
       y="1588.4561"
       ry="0.14876911"
       transform="matrix(0.71898838,-0.6950221,0.6950221,0.71898838,0,0)" />
  </g>
</svg>
