<?xml version="1.0" encoding="UTF-8" standalone="no"?>
<!-- Created with Inkscape (http://www.inkscape.org/) -->

<svg
   xmlns:dc="http://purl.org/dc/elements/1.1/"
   xmlns:cc="http://creativecommons.org/ns#"
   xmlns:rdf="http://www.w3.org/1999/02/22-rdf-syntax-ns#"
   xmlns:svg="http://www.w3.org/2000/svg"
   xmlns="http://www.w3.org/2000/svg"
   xmlns:sodipodi="http://sodipodi.sourceforge.net/DTD/sodipodi-0.dtd"
   xmlns:inkscape="http://www.inkscape.org/namespaces/inkscape"
   height="50mm"
   viewBox="100 40 5750 1050"
   id="svg4265"
   version="1.1"
   inkscape:version="0.91 r13725"
   sodipodi:docname="mrt_train_diagram_2.svg">
  <defs
     id="defs4267" />
  <sodipodi:namedview
     id="base"
     pagecolor="#ffffff"
     bordercolor="#666666"
     borderopacity="1.0"
     inkscape:pageopacity="0.0"
     inkscape:pageshadow="2"
     inkscape:zoom="1.979899"
     inkscape:cx="3297.0776"
     inkscape:cy="58.988997"
     inkscape:document-units="px"
     inkscape:current-layer="layer6"
     showgrid="false"
     width="6297mm"
     inkscape:window-width="1920"
     inkscape:window-height="1017"
     inkscape:window-x="-8"
     inkscape:window-y="-8"
     inkscape:window-maximized="1"
     showguides="false" />
  <metadata
     id="metadata4270">
    <rdf:RDF>
      <cc:Work
         rdf:about="">
        <dc:format>image/svg+xml</dc:format>
        <dc:type
           rdf:resource="http://purl.org/dc/dcmitype/StillImage" />
        <dc:title />
      </cc:Work>
    </rdf:RDF>
  </metadata>
  <!-- body frame -->
  <g
     inkscape:groupmode="layer"
     id="layer3"
     inkscape:label="body frame">
    <path
       style="opacity:0.65;fill-rule:evenodd;stroke:#ffffff;stroke-width:10;stroke-linecap:butt;stroke-linejoin:miter;stroke-miterlimit:4;stroke-dasharray:none;stroke-opacity:1"
       d="m 614.17275,79.585281 -135.36044,69.700529 -49.49748,83.84266 9.09137,17.17259 -74.75128,153.54319 -18.18275,2.0203 0,13.13199 5.05076,5.05076 -25.60044,70.29226 -27.10081,162.09359 -25.96809,36.48804 -2.02031,19.53953 22.10081,23.72372 17.17259,5.05076 -1.01015,59.599 306.07622,-1.01015 0.11296,-27.46187 5058.73099,1.44297 -0.021,-19.14214 90.9348,-1.30601 -2.0203,-563.66512 -80.6896,-0.83684 -0.1226,-43.24222 -1023.4579,2.85714 0.7143,-52.282821 -2964.0921,1.91878 0.2451,58.669341 -1081.17139,-5.05076 z"
       id="path4836"
       inkscape:connector-curvature="0"
       sodipodi:nodetypes="ccccccccccccccccccccccccccccc" />
    <!-- body -->
    <g
       inkscape:groupmode="layer"
       id="layer6"
       inkscape:label="body">
      <path
         style="fill:none;fill-rule:evenodd;stroke:#ffffff;stroke-width:5px;stroke-linecap:butt;stroke-linejoin:miter;stroke-opacity:1"
         d="m 618.21336,207.87466 0,56.56854 2153.64524,0 0,-56.56854 z"
         id="path4911"
         inkscape:connector-curvature="0" />
      <path
         inkscape:connector-curvature="0"
         id="path4913"
         d="m 3347.0734,205.52732 0,56.52936 2327.3523,0 0,-56.52936 z"
         style="fill:none;fill-rule:evenodd;stroke:#ffffff;stroke-width:5.03918648px;stroke-linecap:butt;stroke-linejoin:miter;stroke-opacity:1" />
      <path
         style="fill:none;fill-rule:evenodd;stroke:#ffffff;stroke-width:5px;stroke-linecap:butt;stroke-linejoin:miter;stroke-opacity:1"
         d="m 2780,209.50504 -1.4286,52.85714 65.7143,0 30,30 361.4286,-2.85714 37.1429,-27.14285 58.5714,0 L 3330,209.50504 Z"
         id="path4915"
         inkscape:connector-curvature="0"
         sodipodi:nodetypes="ccccccccc" />
    </g>
    <!-- glass -->
    <g
       inkscape:groupmode="layer"
       id="layer4"
       inkscape:label="glass" />
    <path
       style="opacity:0.25;fill:#000000;fill-rule:evenodd;stroke:#ffffff;stroke-width:5.0999999;stroke-linecap:butt;stroke-linejoin:miter;stroke-miterlimit:4;stroke-dasharray:none;stroke-opacity:1"
       d="m 1499.0664,294.74777 c -11.1614,0.76104 -27.2455,-4.99332 -26.264,21.97082 l 0,173.99878 c -0.1139,20.26112 13.0228,24.7235 30.3046,24.24366 l 381.4244,0.53571 c 15.7524,0.13316 27.1779,-6.77779 26.7998,-31.78916 l -0.1226,-164.71614 c 0.5299,-20.79812 -9.0148,-26.31048 -22.2234,-26.26397 z"
       id="path4841"
       inkscape:connector-curvature="0"
       sodipodi:nodetypes="ccccccccc" />
    <path
       sodipodi:nodetypes="ccccccccc"
       inkscape:connector-curvature="0"
       id="path4847"
       d="m 2862.7723,298.78838 c -11.1614,0.76104 -27.2455,-4.99332 -26.264,21.97082 l 0,173.99878 c -0.1139,20.26112 13.0228,24.7235 30.3046,24.24366 l 381.4244,0.53571 c 15.7524,0.13316 27.1779,-6.77779 26.7998,-31.78916 l -0.1226,-164.71614 c 0.5299,-20.79812 -9.0148,-26.31048 -22.2234,-26.26397 z"
       style="opacity:0.25;fill:#000000;fill-rule:evenodd;stroke:#ffffff;stroke-width:5.0999999;stroke-linecap:butt;stroke-linejoin:miter;stroke-miterlimit:4;stroke-dasharray:none;stroke-opacity:1" />
    <path
       style="opacity:0.25;fill:#000000;fill-rule:evenodd;stroke:#ffffff;stroke-width:5.0999999;stroke-linecap:butt;stroke-linejoin:miter;stroke-miterlimit:4;stroke-dasharray:none;stroke-opacity:1"
       d="m 4228.4986,296.76808 c -11.1614,0.76104 -27.2455,-4.99332 -26.264,21.97082 l 0,173.99878 c -0.1139,20.26112 13.0228,24.7235 30.3046,24.24366 l 381.4244,0.53571 c 15.7524,0.13316 27.1779,-6.77779 26.7998,-31.78916 l -0.1226,-164.71614 c 0.5299,-20.79812 -9.0148,-26.31048 -22.2234,-26.26397 z"
       id="path4853"
       inkscape:connector-curvature="0"
       sodipodi:nodetypes="ccccccccc" />
    <!-- door -->
    <g
       inkscape:groupmode="layer"
       id="layer5"
       inkscape:label="door">
      <path
         style="opacity:0.25;fill:#000000;fill-rule:evenodd;stroke:#ffffff;stroke-width:5px;stroke-linecap:butt;stroke-linejoin:miter;stroke-opacity:1"
         d="m 791.9596,272.52442 0,448.50773 213.1422,0 0,-448.50773 z"
         id="path4860"
         inkscape:connector-curvature="0" />
      <path
         inkscape:connector-curvature="0"
         id="path4868"
         d="m 1224.3049,272.52442 0,448.50773 -213.1422,0 0,-448.50773 z"
         style="opacity:0.25;fill:#000000;fill-rule:evenodd;stroke:#ffffff;stroke-width:5px;stroke-linecap:butt;stroke-linejoin:miter;stroke-opacity:1" />
      <path
         inkscape:connector-curvature="0"
         id="path4874"
         d="m 2157.6858,272.52442 0,448.50773 213.1422,0 0,-448.50773 z"
         style="opacity:0.25;fill:#000000;fill-rule:evenodd;stroke:#ffffff;stroke-width:5px;stroke-linecap:butt;stroke-linejoin:miter;stroke-opacity:1" />
      <path
         style="opacity:0.25;fill:#000000;fill-rule:evenodd;stroke:#ffffff;stroke-width:5px;stroke-linecap:butt;stroke-linejoin:miter;stroke-opacity:1"
         d="m 2590.0311,272.52442 0,448.50773 -213.1422,0 0,-448.50773 z"
         id="path4880"
         inkscape:connector-curvature="0" />
      <path
         style="opacity:0.25;fill:#000000;fill-rule:evenodd;stroke:#ffffff;stroke-width:5px;stroke-linecap:butt;stroke-linejoin:miter;stroke-opacity:1"
         d="m 3955.776,272.76952 0,448.50773 -213.1422,0 0,-448.50773 z"
         id="path4886"
         inkscape:connector-curvature="0" />
      <path
         inkscape:connector-curvature="0"
         id="path4892"
         d="m 3523.4307,272.76952 0,448.50773 213.1422,0 0,-448.50773 z"
         style="opacity:0.25;fill:#000000;fill-rule:evenodd;stroke:#ffffff;stroke-width:5px;stroke-linecap:butt;stroke-linejoin:miter;stroke-opacity:1" />
      <path
         inkscape:connector-curvature="0"
         id="path4898"
         d="m 5321.4903,271.34095 0,448.50773 -213.1422,0 0,-448.50773 z"
         style="opacity:0.25;fill:#000000;fill-rule:evenodd;stroke:#ffffff;stroke-width:5px;stroke-linecap:butt;stroke-linejoin:miter;stroke-opacity:1" />
      <path
         style="opacity:0.25;fill:#000000;fill-rule:evenodd;stroke:#ffffff;stroke-width:5px;stroke-linecap:butt;stroke-linejoin:miter;stroke-opacity:1"
         d="m 4889.145,271.34095 0,448.50773 213.1422,0 0,-448.50773 z"
         id="path4904"
         inkscape:connector-curvature="0" />
    </g>
    <!-- roof -->
    <g
       inkscape:groupmode="layer"
       id="layer7"
       inkscape:label="roof">
      <path
         style="opacity:0.5;fill-rule:evenodd;stroke:#ffffff;stroke-width:5px;stroke-linecap:butt;stroke-linejoin:miter;stroke-opacity:1"
         d="m 700,80.933611 0,59.999999 960,0 0,-59.999999 z"
         id="path4928"
         inkscape:connector-curvature="0" />
      <path
         inkscape:connector-curvature="0"
         id="path4938"
         d="m 4691.8994,76.878573 0,59.999997 960,0 0,-59.999997 z"
         style="opacity:0.5;fill-rule:evenodd;stroke:#ffffff;stroke-width:5px;stroke-linecap:butt;stroke-linejoin:miter;stroke-opacity:1" />
    </g>
    <!-- bottom mechanical -->
    <g
       inkscape:groupmode="layer"
       id="layer8"
       inkscape:label="bottom mechanical">
      <path
         style="opacity:0.5;fill-rule:evenodd;stroke:#ffffff;stroke-width:5px;stroke-linecap:butt;stroke-linejoin:miter;stroke-opacity:1"
         d="m 280,733.79075 0,54.28572 -52.85714,0 -30,30 -74.28572,0 0,11.42857 75.71429,0 11.42857,14.28571 -35.71429,38.57143 11.42858,10 22.85714,-27.14285 24.28571,1.42857 0,47.14285 12.85715,0 0,-47.14285 65.71428,1.42857 32.85714,2.85714 1.42858,-24.28571 75.71428,0 35.71429,37.14285 14.28571,-15.71428 24.28572,-1.42857 -1.42858,54.28571 30,-2.85714 -1.42857,-35.71429 31.42857,-22.85714 42.85715,44.28571 -11.42857,14.28572 40,21.42857 51.42857,0 71.42857,-77.14286 62.85714,-44.28571 -1.42857,32.85714 142.85714,-1.42857 21.42857,21.42857 67.14289,1.42857 44.2857,42.85715 232.8571,0 72.8572,-61.42858 204.2857,0 0,-41.42857 -37.1429,1.42857 0,-14.28571 170,-1.42857 0,-17.14286 -1107.14283,0 0,30 -322.85714,0 0,-62.85714 z"
         id="path4955"
         inkscape:connector-curvature="0" />
      <ellipse
         style="opacity:1;fill:none;fill-opacity:1;stroke:#ffffff;stroke-width:15;stroke-miterlimit:4;stroke-dasharray:none;stroke-opacity:1"
         id="path4957"
         cx="910"
         cy="905.21936"
         rx="102.85714"
         ry="100" />
      <ellipse
         ry="100"
         rx="102.85714"
         cy="903.79077"
         cx="1482.8572"
         id="ellipse4959"
         style="opacity:1;fill:none;fill-opacity:1;stroke:#ffffff;stroke-width:15;stroke-miterlimit:4;stroke-dasharray:none;stroke-opacity:1" />
      <path
         inkscape:connector-curvature="0"
         id="path4981"
         d="m 5833.8031,838.79073 -37.8571,-4e-5 0.7142,17.14288 -13.5714,-4e-5 -1e-4,-17.14279 c -83.5081,0.38964 -75.6325,0.46223 -163.5714,-2.14292 -15.8192,57.82682 -70.7543,74.32353 -97.8571,27.14292 l -35.7143,-0.7143 -24.2857,15.71428 -70.7143,-82.14283 -121.4285,-0.71429 -0.7143,20.71424 31.4286,7e-5 -1e-4,34.28567 -142.8571,-1.4285 -21.4285,21.42845 -67.1429,1.4286 -44.2857,42.8572 -232.8571,0 -72.8572,-61.4286 -204.2857,0 0,-41.42855 37.1429,1.4286 0,-14.2857 -170,-1.4286 0,-17.1429 c 432.1428,0 864.2857,0 1296.4285,0 l 0,-20 102.8571,-2.14281 c 19.8939,28.73577 32.8927,48.89246 52.8572,79.99996 z"
         style="opacity:0.5;fill-rule:evenodd;stroke:#ffffff;stroke-width:5px;stroke-linecap:butt;stroke-linejoin:miter;stroke-opacity:1"
         sodipodi:nodetypes="cccccccccccccccccccccccccccccc" />
      <ellipse
         ry="100"
         rx="102.85714"
         cy="905.21936"
         cx="-5200.2314"
         id="ellipse4983"
         style="opacity:1;fill:none;fill-opacity:1;stroke:#ffffff;stroke-width:15;stroke-miterlimit:4;stroke-dasharray:none;stroke-opacity:1"
         transform="scale(-1,1)" />
      <ellipse
         style="opacity:1;fill:none;fill-opacity:1;stroke:#ffffff;stroke-width:15;stroke-miterlimit:4;stroke-dasharray:none;stroke-opacity:1"
         id="ellipse4985"
         cx="-4627.3745"
         cy="903.79077"
         rx="102.85714"
         ry="100"
         transform="scale(-1,1)" />
      <path
         style="opacity:0.5;fill-rule:evenodd;stroke:#ffffff;stroke-width:5px;stroke-linecap:butt;stroke-linejoin:miter;stroke-opacity:1"
         d="m 1737.1429,786.6479 0,160 2634.2857,0 0,-160 z"
         id="path5007"
         inkscape:connector-curvature="0" />
    </g>
  </g>
</svg>
