<?xml version="1.0" encoding="UTF-8" standalone="no"?>
<!-- Created with Inkscape (http://www.inkscape.org/) -->

<svg
   xmlns:dc="http://purl.org/dc/elements/1.1/"
   xmlns:cc="http://creativecommons.org/ns#"
   xmlns:rdf="http://www.w3.org/1999/02/22-rdf-syntax-ns#"
   xmlns:svg="http://www.w3.org/2000/svg"
   xmlns="http://www.w3.org/2000/svg"
   xmlns:sodipodi="http://sodipodi.sourceforge.net/DTD/sodipodi-0.dtd"
   xmlns:inkscape="http://www.inkscape.org/namespaces/inkscape"
   height="50mm"
   viewBox="100 40 5750 1050"
   id="svg4265"
   version="1.1"
   inkscape:version="0.91 r13725"
   sodipodi:docname="mrt_train_diagram_4.svg">
  <defs
     id="defs4267" />
  <sodipodi:namedview
     id="base"
     pagecolor="#ffffff"
     bordercolor="#666666"
     borderopacity="1.0"
     inkscape:pageopacity="0.0"
     inkscape:pageshadow="2"
     inkscape:zoom="1.4"
     inkscape:cx="2857.1392"
     inkscape:cy="84.643459"
     inkscape:document-units="px"
     inkscape:current-layer="layer6"
     showgrid="false"
     width="6297mm"
     inkscape:window-width="1920"
     inkscape:window-height="1017"
     inkscape:window-x="-8"
     inkscape:window-y="-8"
     inkscape:window-maximized="1"
     showguides="false" />
  <metadata
     id="metadata4270">
    <rdf:RDF>
      <cc:Work
         rdf:about="">
        <dc:format>image/svg+xml</dc:format>
        <dc:type
           rdf:resource="http://purl.org/dc/dcmitype/StillImage" />
        <dc:title />
      </cc:Work>
    </rdf:RDF>
  </metadata>
  <!-- body frame -->
  <g
     inkscape:groupmode="layer"
     id="layer3"
     inkscape:label="body frame">
    <path
       style="opacity:.65;fill-rule:evenodd;stroke:#ffffff;stroke-width:10;stroke-linecap:butt;stroke-linejoin:miter;stroke-miterlimit:4;stroke-dasharray:none;stroke-opacity:1"
       d="m 5342.9025,79.585281 135.3604,69.700529 49.4975,83.84266 -9.0913,17.17259 74.7512,153.54319 18.1828,2.0203 0,13.13199 -5.0508,5.05076 25.6005,70.29226 27.1008,162.09359 25.9681,36.48804 2.0203,19.53953 -22.1008,23.72372 -17.1726,5.05076 1.0101,59.599 -306.0762,-1.01015 -0.113,-27.46187 -5058.73095,1.44297 0.021,-19.14214 -90.9348,-1.30601 2.0203,-563.66512 80.6896,-0.83684 0.1226,-43.24222 1023.45795,2.85714 -0.7143,-52.282821 2964.0921,1.91878 -0.2451,58.669341 1081.1713,-5.05076 z"
       id="path4836"
       inkscape:connector-curvature="0"
       sodipodi:nodetypes="ccccccccccccccccccccccccccccc" />
  </g>
  <!-- body -->
  <g
     inkscape:groupmode="layer"
     id="layer6"
     inkscape:label="body">
    <path
       style="fill:none;fill-rule:evenodd;stroke:#ffffff;stroke-width:5px;stroke-linecap:butt;stroke-linejoin:miter;stroke-opacity:1"
       d="m 5338.8619,207.87466 0,56.56854 -2153.6452,0 0,-56.56854 z"
       id="path4911"
       inkscape:connector-curvature="0" />
    <path
       inkscape:connector-curvature="0"
       id="path4913"
       d="m 2610.0019,205.52732 0,56.52936 -2327.35235,0 0,-56.52936 z"
       style="fill:none;fill-rule:evenodd;stroke:#ffffff;stroke-width:5.03918648px;stroke-linecap:butt;stroke-linejoin:miter;stroke-opacity:1" />
    <path
       style="fill:none;fill-rule:evenodd;stroke:#ffffff;stroke-width:5px;stroke-linecap:butt;stroke-linejoin:miter;stroke-opacity:1"
       d="m 3177.0753,209.50504 1.4286,52.85714 -65.7143,0 -30,30 -361.4286,-2.85714 -37.1429,-27.14285 -58.5714,0 1.4286,-52.85715 z"
       id="path4915"
       inkscape:connector-curvature="0"
       sodipodi:nodetypes="ccccccccc" />
  </g>
  <!-- glass -->
  <g
     inkscape:groupmode="layer"
     id="layer4"
     inkscape:label="glass" />
  <path
     style="opacity:.25;fill:#000000;fill-rule:evenodd;stroke:#ffffff;stroke-width:5.10000002;stroke-linecap:butt;stroke-linejoin:miter;stroke-miterlimit:4;stroke-dasharray:none;stroke-opacity:1"
     d="m 4458.0089,294.74777 c 11.1614,0.76104 27.2455,-4.99332 26.264,21.97082 l 0,173.99878 c 0.1139,20.26112 -13.0228,24.7235 -30.3046,24.24366 l -381.4244,0.53571 c -15.7524,0.13316 -27.1779,-6.77779 -26.7998,-31.78916 l 0.1226,-164.71614 c -0.5299,-20.79812 9.0148,-26.31048 22.2234,-26.26397 z"
     id="path4841"
     inkscape:connector-curvature="0"
     sodipodi:nodetypes="ccccccccc" />
  <path
     sodipodi:nodetypes="ccccccccc"
     inkscape:connector-curvature="0"
     id="path4847"
     d="m 3094.303,298.78838 c 11.1614,0.76104 27.2455,-4.99332 26.264,21.97082 l 0,173.99878 c 0.1139,20.26112 -13.0228,24.7235 -30.3046,24.24366 l -381.4244,0.53571 c -15.7524,0.13316 -27.1779,-6.77779 -26.7998,-31.78916 l 0.1226,-164.71614 c -0.5299,-20.79812 9.0148,-26.31048 22.2234,-26.26397 z"
     style="opacity:.25;fill:#000000;fill-rule:evenodd;stroke:#ffffff;stroke-width:5.10000002;stroke-linecap:butt;stroke-linejoin:miter;stroke-miterlimit:4;stroke-dasharray:none;stroke-opacity:1" />
  <path
     style="opacity:.25;fill:#000000;fill-rule:evenodd;stroke:#ffffff;stroke-width:5.10000002;stroke-linecap:butt;stroke-linejoin:miter;stroke-miterlimit:4;stroke-dasharray:none;stroke-opacity:1"
     d="m 1728.5767,296.76808 c 11.1614,0.76104 27.2455,-4.99332 26.264,21.97082 l 0,173.99878 c 0.1139,20.26112 -13.0228,24.7235 -30.3046,24.24366 l -381.4244,0.53571 c -15.7524,0.13316 -27.1779,-6.77779 -26.7998,-31.78916 l 0.1226,-164.71614 c -0.5299,-20.79812 9.0148,-26.31048 22.2234,-26.26397 z"
     id="path4853"
     inkscape:connector-curvature="0"
     sodipodi:nodetypes="ccccccccc" />
  <!-- door -->
  <g
     inkscape:groupmode="layer"
     id="layer5"
     inkscape:label="door">
    <path
       style="opacity:.25;fill:#000000;fill-rule:evenodd;stroke:#ffffff;stroke-width:5px;stroke-linecap:butt;stroke-linejoin:miter;stroke-opacity:1"
       d="m 5165.1157,272.52442 0,448.50773 -213.1422,0 0,-448.50773 z"
       id="path4860"
       inkscape:connector-curvature="0" />
    <path
       inkscape:connector-curvature="0"
       id="path4868"
       d="m 4732.7704,272.52442 0,448.50773 213.1422,0 0,-448.50773 z"
       style="opacity:.25;fill:#000000;fill-rule:evenodd;stroke:#ffffff;stroke-width:5px;stroke-linecap:butt;stroke-linejoin:miter;stroke-opacity:1" />
    <path
       inkscape:connector-curvature="0"
       id="path4874"
       d="m 3799.3895,272.52442 0,448.50773 -213.1422,0 0,-448.50773 z"
       style="opacity:.25;fill:#000000;fill-rule:evenodd;stroke:#ffffff;stroke-width:5px;stroke-linecap:butt;stroke-linejoin:miter;stroke-opacity:1" />
    <path
       style="opacity:.25;fill:#000000;fill-rule:evenodd;stroke:#ffffff;stroke-width:5px;stroke-linecap:butt;stroke-linejoin:miter;stroke-opacity:1"
       d="m 3367.0442,272.52442 0,448.50773 213.1422,0 0,-448.50773 z"
       id="path4880"
       inkscape:connector-curvature="0" />
    <path
       style="opacity:.25;fill:#000000;fill-rule:evenodd;stroke:#ffffff;stroke-width:5px;stroke-linecap:butt;stroke-linejoin:miter;stroke-opacity:1"
       d="m 2001.2993,272.76952 0,448.50773 213.1422,0 0,-448.50773 z"
       id="path4886"
       inkscape:connector-curvature="0" />
    <path
       inkscape:connector-curvature="0"
       id="path4892"
       d="m 2433.6446,272.76952 0,448.50773 -213.1422,0 0,-448.50773 z"
       style="opacity:.25;fill:#000000;fill-rule:evenodd;stroke:#ffffff;stroke-width:5px;stroke-linecap:butt;stroke-linejoin:miter;stroke-opacity:1" />
    <path
       inkscape:connector-curvature="0"
       id="path4898"
       d="m 635.58495,271.34095 0,448.50773 213.1422,0 0,-448.50773 z"
       style="opacity:.25;fill:#000000;fill-rule:evenodd;stroke:#ffffff;stroke-width:5px;stroke-linecap:butt;stroke-linejoin:miter;stroke-opacity:1" />
    <path
       style="opacity:.25;fill:#000000;fill-rule:evenodd;stroke:#ffffff;stroke-width:5px;stroke-linecap:butt;stroke-linejoin:miter;stroke-opacity:1"
       d="m 1067.9303,271.34095 0,448.50773 -213.14225,0 0,-448.50773 z"
       id="path4904"
       inkscape:connector-curvature="0" />
  </g>
  <!-- roof -->
  <g
     inkscape:groupmode="layer"
     id="layer7"
     inkscape:label="roof">
    <path
       style="opacity:.5;fill-rule:evenodd;stroke:#ffffff;stroke-width:5px;stroke-linecap:butt;stroke-linejoin:miter;stroke-opacity:1"
       d="m 5257.0753,80.933611 0,59.999999 -960,0 0,-59.999999 z"
       id="path4928"
       inkscape:connector-curvature="0" />
    <path
       inkscape:connector-curvature="0"
       id="path4938"
       d="m 1265.1759,76.878573 0,59.999997 -960.00005,0 0,-59.999997 z"
       style="opacity:.5;fill-rule:evenodd;stroke:#ffffff;stroke-width:5px;stroke-linecap:butt;stroke-linejoin:miter;stroke-opacity:1" />
  </g>
  <!-- bottom mechanical -->
  <g
     inkscape:groupmode="layer"
     id="layer8"
     inkscape:label="bottom mechanical">
    <path
       style="opacity:.5;fill-rule:evenodd;stroke:#ffffff;stroke-width:5px;stroke-linecap:butt;stroke-linejoin:miter;stroke-opacity:1"
       d="m 5677.0753,733.79075 0,54.28572 52.8571,0 30,30 74.2857,0 0,11.42857 -75.7143,0 -11.4285,14.28571 35.7142,38.57143 -11.4285,10 -22.8572,-27.14285 -24.2857,1.42857 0,47.14285 -12.8571,0 0,-47.14285 -65.7143,1.42857 -32.8572,2.85714 -1.4285,-24.28571 -75.7143,0 -35.7143,37.14285 -14.2857,-15.71428 -24.2857,-1.42857 1.4285,54.28571 -30,-2.85714 1.4286,-35.71429 -31.4286,-22.85714 -42.8571,44.28571 11.4286,14.28572 -40,21.42857 -51.4286,0 -71.4286,-77.14286 -62.8571,-44.28571 1.4286,32.85714 -142.8572,-1.42857 -21.4286,21.42857 -67.1428,1.42857 -44.2857,42.85715 -232.8571,0 -72.8572,-61.42858 -204.2857,0 0,-41.42857 37.1429,1.42857 0,-14.28571 -170,-1.42857 0,-17.14286 1107.1428,0 0,30 322.8571,0 0,-62.85714 z"
       id="path4955"
       inkscape:connector-curvature="0" />
    <ellipse
       style="opacity:1;fill:none;fill-opacity:1;stroke:#ffffff;stroke-width:15;stroke-miterlimit:4;stroke-dasharray:none;stroke-opacity:1"
       id="path4957"
       cx="-5047.0752"
       cy="905.21936"
       rx="102.85714"
       ry="100"
       transform="scale(-1,1)" />
    <ellipse
       ry="100"
       rx="102.85714"
       cy="903.79077"
       cx="-4474.2183"
       id="ellipse4959"
       style="opacity:1;fill:none;fill-opacity:1;stroke:#ffffff;stroke-width:15;stroke-miterlimit:4;stroke-dasharray:none;stroke-opacity:1"
       transform="scale(-1,1)" />
    <path
       inkscape:connector-curvature="0"
       id="path4981"
       d="m 123.27215,838.79073 37.8571,-4e-5 -0.7142,17.14288 13.5714,-4e-5 1e-4,-17.14279 c 83.5081,0.38964 75.6325,0.46223 163.5714,-2.14292 15.8192,57.82682 70.7543,74.32353 97.8571,27.14292 l 35.7143,-0.7143 24.2857,15.71428 70.7143,-82.14283 121.4285,-0.71429 0.7143,20.71424 -31.4286,7e-5 10e-5,34.28567 142.8571,-1.4285 21.4285,21.42845 67.1429,1.4286 44.2857,42.8572 232.85715,0 72.8572,-61.4286 204.2857,0 0,-41.42855 -37.1429,1.4286 0,-14.2857 170,-1.4286 0,-17.1429 c -432.1428,0 -864.28575,0 -1296.42855,0 l 0,-20 -102.8571,-2.14281 c -19.8939,28.73577 -32.8927,48.89246 -52.8572,79.99996 z"
       style="opacity:.5;fill-rule:evenodd;stroke:#ffffff;stroke-width:5px;stroke-linecap:butt;stroke-linejoin:miter;stroke-opacity:1"
       sodipodi:nodetypes="cccccccccccccccccccccccccccccc" />
    <ellipse
       ry="100"
       rx="102.85714"
       cy="905.21936"
       cx="756.84381"
       id="ellipse4983"
       style="opacity:1;fill:none;fill-opacity:1;stroke:#ffffff;stroke-width:15;stroke-miterlimit:4;stroke-dasharray:none;stroke-opacity:1" />
    <ellipse
       style="opacity:1;fill:none;fill-opacity:1;stroke:#ffffff;stroke-width:15;stroke-miterlimit:4;stroke-dasharray:none;stroke-opacity:1"
       id="ellipse4985"
       cx="1329.7007"
       cy="903.79077"
       rx="102.85714"
       ry="100" />
    <path
       style="opacity:.5;fill-rule:evenodd;stroke:#ffffff;stroke-width:5px;stroke-linecap:butt;stroke-linejoin:miter;stroke-opacity:1"
       d="m 4219.9324,786.6479 0,160 -2634.2857,0 0,-160 z"
       id="path5007"
       inkscape:connector-curvature="0" />
  </g>
</svg>
